{"accessors":[{"bufferView":0,"byteOffset":0,"componentType":5126,"count":1,"max":[0],"min":[0],"type":"SCALAR"},{"bufferView":1,"byteOffset":0,"componentType":5123,"count":258,"type":"SCALAR"},{"bufferView":2,"byteOffset":0,"componentType":5126,"count":156,"max":[1.31744050979614,0.0469152294099331,0.784777104854584],"min":[1.26744043827057,0.0201340671628714,0.734777331352234],"type":"VEC3"},{"bufferView":3,"byteOffset":0,"componentType":5126,"count":156,"type":"VEC3"},{"bufferView":4,"byteOffset":0,"componentType":5126,"count":156,"type":"VEC2"}],"animations":[{"channels":[],"name":"Take 001","samplers":[]}],"asset":{"generator":"FBX2glTF v0.13.1","version":"2.0"},"bufferViews":[{"buffer":0,"byteLength":4,"byteOffset":0},{"buffer":0,"byteLength":516,"byteOffset":4,"target":34963},{"buffer":0,"byteLength":1872,"byteOffset":520,"target":34962},{"buffer":0,"byteLength":1872,"byteOffset":2392,"target":34962},{"buffer":0,"byteLength":1248,"byteOffset":4264,"target":34962}],"buffers":[{"byteLength":5512,"uri":"SD_Env_Undead_Stairs_01.bin"}],"images":[{"name":"SimpleDungeonTexture","uri":"../Textures/SimpleDungeonTexture.png"}],"materials":[{"alphaMode":"OPAQUE","doubleSided":false,"extras":{"fromFBX":{"isTruePBR":false,"shadingModel":"Lambert"}},"name":"lambert1","pbrMetallicRoughness":{"baseColorFactor":[0.800000011920929,0.800000011920929,0.800000011920929,1],"baseColorTexture":{"index":0,"texCoord":0},"metallicFactor":0.200000002980232,"roughnessFactor":0.800000011920929}}],"meshes":[{"name":"SD_Env_Undead_Stairs_01","primitives":[{"attributes":{"NORMAL":3,"POSITION":2,"TEXCOORD_0":4},"indices":1,"material":0,"mode":4}]}],"nodes":[{"mesh":0,"name":"SD_Env_Undead_Stairs_01","rotation":[0,0,0,1],"scale":[1,1.24165105819702,1],"translation":[-1.26744043827057,-0.02499948628247,-0.78477710485458]}],"samplers":[{}],"scene":0,"scenes":[{"name":"Root Scene","nodes":[0]}],"textures":[{"name":"file1","sampler":0,"source":0}]}