{"accessors":[{"bufferView":0,"byteOffset":0,"componentType":5126,"count":1,"max":[0],"min":[0],"type":"SCALAR"},{"bufferView":1,"byteOffset":0,"componentType":5123,"count":576,"type":"SCALAR"},{"bufferView":2,"byteOffset":0,"componentType":5126,"count":384,"max":[0.0561153776943684,0.00188750622328371,0.055638425052166],"min":[-0.05611539632082,-0.00188751809765,-0.05563835054636],"type":"VEC3"},{"bufferView":3,"byteOffset":0,"componentType":5126,"count":384,"type":"VEC3"},{"bufferView":4,"byteOffset":0,"componentType":5126,"count":384,"type":"VEC2"}],"animations":[{"channels":[],"name":"Take 001","samplers":[]}],"asset":{"generator":"FBX2glTF v0.13.1","version":"2.0"},"bufferViews":[{"buffer":0,"byteLength":4,"byteOffset":0},{"buffer":0,"byteLength":1152,"byteOffset":4,"target":34963},{"buffer":0,"byteLength":4608,"byteOffset":1156,"target":34962},{"buffer":0,"byteLength":4608,"byteOffset":5764,"target":34962},{"buffer":0,"byteLength":3072,"byteOffset":10372,"target":34962}],"buffers":[{"byteLength":13444,"uri":"SD_Env_Goblin_Platform_Large_02.bin"}],"images":[{"name":"SimpleDungeonTexture","uri":"../Textures/SimpleDungeonTexture.png"}],"materials":[{"alphaMode":"OPAQUE","doubleSided":false,"extras":{"fromFBX":{"isTruePBR":false,"shadingModel":"Lambert"}},"name":"lambert1","pbrMetallicRoughness":{"baseColorFactor":[0.800000011920929,0.800000011920929,0.800000011920929,1],"baseColorTexture":{"index":0,"texCoord":0},"metallicFactor":0.200000002980232,"roughnessFactor":0.800000011920929}}],"meshes":[{"name":"SD_Env_Goblin_Platform_Large_02","primitives":[{"attributes":{"NORMAL":3,"POSITION":2,"TEXCOORD_0":4},"indices":1,"material":0,"mode":4}]}],"nodes":[{"mesh":0,"name":"SD_Env_Goblin_Platform_Large_02","rotation":[0,0,0,1],"scale":[1,1,1],"translation":[0,0,0]}],"samplers":[{}],"scene":0,"scenes":[{"name":"Root Scene","nodes":[0]}],"textures":[{"name":"file1","sampler":0,"source":0}]}