{"accessors":[{"bufferView":0,"byteOffset":0,"componentType":5126,"count":1,"max":[0],"min":[0],"type":"SCALAR"},{"bufferView":1,"byteOffset":0,"componentType":5123,"count":144,"type":"SCALAR"},{"bufferView":2,"byteOffset":0,"componentType":5126,"count":96,"max":[0.0128035582602024,0.045850146561861,0.0022681572008878],"min":[-0.0128035005182,0,-0.00226815720089],"type":"VEC3"},{"bufferView":3,"byteOffset":0,"componentType":5126,"count":96,"type":"VEC3"},{"bufferView":4,"byteOffset":0,"componentType":5126,"count":96,"type":"VEC4"},{"bufferView":5,"byteOffset":0,"componentType":5126,"count":96,"type":"VEC2"},{"bufferView":6,"byteOffset":0,"componentType":5123,"count":564,"type":"SCALAR"},{"bufferView":7,"byteOffset":0,"componentType":5126,"count":316,"max":[0.00964133627712727,0.0400867983698845,0.00268099806271493],"min":[-0.00961553119123,0,-0.00268099806271],"type":"VEC3"},{"bufferView":8,"byteOffset":0,"componentType":5126,"count":316,"type":"VEC3"},{"bufferView":9,"byteOffset":0,"componentType":5126,"count":316,"type":"VEC2"}],"animations":[{"channels":[],"name":"Take 001","samplers":[]}],"asset":{"generator":"FBX2glTF v0.13.1","version":"2.0"},"bufferViews":[{"buffer":0,"byteLength":4,"byteOffset":0},{"buffer":0,"byteLength":288,"byteOffset":4,"target":34963},{"buffer":0,"byteLength":1152,"byteOffset":292,"target":34962},{"buffer":0,"byteLength":1152,"byteOffset":1444,"target":34962},{"buffer":0,"byteLength":1536,"byteOffset":2596,"target":34962},{"buffer":0,"byteLength":768,"byteOffset":4132,"target":34962},{"buffer":0,"byteLength":1128,"byteOffset":4900,"target":34963},{"buffer":0,"byteLength":3792,"byteOffset":6028,"target":34962},{"buffer":0,"byteLength":3792,"byteOffset":9820,"target":34962},{"buffer":0,"byteLength":2528,"byteOffset":13612,"target":34962}],"buffers":[{"byteLength":16140,"uri":"SD_Env_Door_01.bin"}],"images":[{"name":"SimpleDungeonTexture","uri":"../Textures/SimpleDungeonTexture.png"}],"materials":[{"alphaMode":"OPAQUE","doubleSided":false,"extras":{"fromFBX":{"isTruePBR":false,"shadingModel":"Lambert"}},"name":"lambert1","pbrMetallicRoughness":{"baseColorFactor":[0.800000011920929,0.800000011920929,0.800000011920929,1],"baseColorTexture":{"index":0,"texCoord":0},"metallicFactor":0.200000002980232,"roughnessFactor":0.800000011920929}}],"meshes":[{"name":"SD_Env_Door_01","primitives":[{"attributes":{"COLOR_0":4,"NORMAL":3,"POSITION":2,"TEXCOORD_0":5},"indices":1,"material":0,"mode":4}]},{"name":"Door","primitives":[{"attributes":{"NORMAL":8,"POSITION":7,"TEXCOORD_0":9},"indices":6,"material":0,"mode":4}]}],"nodes":[{"children":[1],"mesh":0,"name":"SD_Env_Door_01","rotation":[0,0,0,1],"scale":[1,1,1],"translation":[0,0,0]},{"mesh":1,"name":"Door","rotation":[0,0,0,1],"scale":[1,1,1],"translation":[0,0,0]}],"samplers":[{}],"scene":0,"scenes":[{"name":"Root Scene","nodes":[0]}],"textures":[{"name":"file1","sampler":0,"source":0}]}