{"accessors":[{"bufferView":0,"byteOffset":0,"componentType":5126,"count":1,"max":[0],"min":[0],"type":"SCALAR"},{"bufferView":1,"byteOffset":0,"componentType":5123,"count":2472,"type":"SCALAR"},{"bufferView":2,"byteOffset":0,"componentType":5126,"count":1568,"max":[0.0636843889951706,0.0904391780495644,0.0686886757612228],"min":[-0.05952581390738,-0.0002835446503,-0.07585063576698],"type":"VEC3"},{"bufferView":3,"byteOffset":0,"componentType":5126,"count":1568,"type":"VEC3"},{"bufferView":4,"byteOffset":0,"componentType":5126,"count":1568,"type":"VEC2"}],"animations":[{"channels":[],"name":"Take 001","samplers":[]}],"asset":{"generator":"FBX2glTF v0.13.1","version":"2.0"},"bufferViews":[{"buffer":0,"byteLength":4,"byteOffset":0},{"buffer":0,"byteLength":4944,"byteOffset":4,"target":34963},{"buffer":0,"byteLength":18816,"byteOffset":4948,"target":34962},{"buffer":0,"byteLength":18816,"byteOffset":23764,"target":34962},{"buffer":0,"byteLength":12544,"byteOffset":42580,"target":34962}],"buffers":[{"byteLength":55124,"uri":"SD_Env_Dungeon_Entrance_02.bin"}],"images":[{"name":"SimpleDungeonTexture","uri":"../Textures/SimpleDungeonTexture.png"}],"materials":[{"alphaMode":"OPAQUE","doubleSided":false,"extras":{"fromFBX":{"isTruePBR":false,"shadingModel":"Lambert"}},"name":"lambert71","pbrMetallicRoughness":{"baseColorFactor":[0.800000011920929,0.800000011920929,0.800000011920929,1],"baseColorTexture":{"index":0,"texCoord":0},"metallicFactor":0.200000002980232,"roughnessFactor":0.800000011920929}}],"meshes":[{"name":"SD_Env_Dungeon_Entrance_02","primitives":[{"attributes":{"NORMAL":3,"POSITION":2,"TEXCOORD_0":4},"indices":1,"material":0,"mode":4}]}],"nodes":[{"mesh":0,"name":"SD_Env_Dungeon_Entrance_02","rotation":[0,0,0,1],"scale":[1,1,1],"translation":[0,0,0]}],"samplers":[{}],"scene":0,"scenes":[{"name":"Root Scene","nodes":[0]}],"textures":[{"name":"file166","sampler":0,"source":0}]}