{"accessors":[{"bufferView":0,"byteOffset":0,"componentType":5126,"count":1,"max":[0],"min":[0],"type":"SCALAR"},{"bufferView":1,"byteOffset":0,"componentType":5123,"count":1668,"type":"SCALAR"},{"bufferView":2,"byteOffset":0,"componentType":5126,"count":1024,"max":[0.0461301691830158,0.100441202521324,0.0150524899363518],"min":[-0.0461300201714,0,-0.01505248993635],"type":"VEC3"},{"bufferView":3,"byteOffset":0,"componentType":5126,"count":1024,"type":"VEC3"},{"bufferView":4,"byteOffset":0,"componentType":5126,"count":1024,"type":"VEC2"},{"bufferView":5,"byteOffset":0,"componentType":5123,"count":252,"type":"SCALAR"},{"bufferView":6,"byteOffset":0,"componentType":5126,"count":153,"max":[0.0220767054706812,0.0814603790640831,0.00299022835679352],"min":[-0,0,-0.00299016945064],"type":"VEC3"},{"bufferView":7,"byteOffset":0,"componentType":5126,"count":153,"type":"VEC3"},{"bufferView":8,"byteOffset":0,"componentType":5126,"count":153,"type":"VEC2"},{"bufferView":9,"byteOffset":0,"componentType":5123,"count":252,"type":"SCALAR"},{"bufferView":10,"byteOffset":0,"componentType":5126,"count":153,"max":[0,0.0814603790640831,0.00299022835679352],"min":[-0.02207657508552,0,-0.00299017014913],"type":"VEC3"},{"bufferView":11,"byteOffset":0,"componentType":5126,"count":153,"type":"VEC3"},{"bufferView":12,"byteOffset":0,"componentType":5126,"count":153,"type":"VEC2"}],"animations":[{"channels":[],"name":"Take 001","samplers":[]}],"asset":{"generator":"FBX2glTF v0.13.1","version":"2.0"},"bufferViews":[{"buffer":0,"byteLength":4,"byteOffset":0},{"buffer":0,"byteLength":3336,"byteOffset":4,"target":34963},{"buffer":0,"byteLength":12288,"byteOffset":3340,"target":34962},{"buffer":0,"byteLength":12288,"byteOffset":15628,"target":34962},{"buffer":0,"byteLength":8192,"byteOffset":27916,"target":34962},{"buffer":0,"byteLength":504,"byteOffset":36108,"target":34963},{"buffer":0,"byteLength":1836,"byteOffset":36612,"target":34962},{"buffer":0,"byteLength":1836,"byteOffset":38448,"target":34962},{"buffer":0,"byteLength":1224,"byteOffset":40284,"target":34962},{"buffer":0,"byteLength":504,"byteOffset":41508,"target":34963},{"buffer":0,"byteLength":1836,"byteOffset":42012,"target":34962},{"buffer":0,"byteLength":1836,"byteOffset":43848,"target":34962},{"buffer":0,"byteLength":1224,"byteOffset":45684,"target":34962}],"buffers":[{"byteLength":46908,"uri":"SD_Env_Undead_Entrance_01.bin"}],"images":[{"name":"SimpleDungeonTexture","uri":"../Textures/SimpleDungeonTexture.png"}],"materials":[{"alphaMode":"OPAQUE","doubleSided":false,"extras":{"fromFBX":{"isTruePBR":false,"shadingModel":"Lambert"}},"name":"lambert1","pbrMetallicRoughness":{"baseColorFactor":[0.800000011920929,0.800000011920929,0.800000011920929,1],"baseColorTexture":{"index":0,"texCoord":0},"metallicFactor":0.200000002980232,"roughnessFactor":0.800000011920929}}],"meshes":[{"name":"SD_Env_Undead_Entrance_01","primitives":[{"attributes":{"NORMAL":3,"POSITION":2,"TEXCOORD_0":4},"indices":1,"material":0,"mode":4}]},{"name":"Door_01","primitives":[{"attributes":{"NORMAL":7,"POSITION":6,"TEXCOORD_0":8},"indices":5,"material":0,"mode":4}]},{"name":"Door_02","primitives":[{"attributes":{"NORMAL":11,"POSITION":10,"TEXCOORD_0":12},"indices":9,"material":0,"mode":4}]}],"nodes":[{"children":[1,2],"mesh":0,"name":"SD_Env_Undead_Entrance_01","rotation":[0,0,0,1],"scale":[1,1,1],"translation":[0,0,0]},{"mesh":1,"name":"Door_01","rotation":[0,0,0,1],"scale":[1,1,1],"translation":[0,0,0]},{"mesh":2,"name":"Door_02","rotation":[0,0,0,1],"scale":[1,1,1],"translation":[0,0,0]}],"samplers":[{}],"scene":0,"scenes":[{"name":"Root Scene","nodes":[0]}],"textures":[{"name":"file1","sampler":0,"source":0}]}