{"accessors":[{"bufferView":0,"byteOffset":0,"componentType":5126,"count":1,"max":[0],"min":[0],"type":"SCALAR"},{"bufferView":1,"byteOffset":0,"componentType":5123,"count":330,"type":"SCALAR"},{"bufferView":2,"byteOffset":0,"componentType":5126,"count":220,"max":[0.0249999985098839,0.0501377768814564,0.00175213755574077],"min":[-0.02499999850988,0,-0.00175213755574],"type":"VEC3"},{"bufferView":3,"byteOffset":0,"componentType":5126,"count":220,"type":"VEC3"},{"bufferView":4,"byteOffset":0,"componentType":5126,"count":220,"type":"VEC2"},{"bufferView":5,"byteOffset":0,"componentType":5123,"count":246,"type":"SCALAR"},{"bufferView":6,"byteOffset":0,"componentType":5126,"count":164,"max":[0.0152106285095215,0.0336218886077404,0.00190650066360831],"min":[-0.01572658494115,0.00288062798790634,-0.00114225386642],"type":"VEC3"},{"bufferView":7,"byteOffset":0,"componentType":5126,"count":164,"type":"VEC3"},{"bufferView":8,"byteOffset":0,"componentType":5126,"count":164,"type":"VEC2"}],"animations":[{"channels":[],"name":"Take 001","samplers":[]}],"asset":{"generator":"FBX2glTF v0.13.1","version":"2.0"},"bufferViews":[{"buffer":0,"byteLength":4,"byteOffset":0},{"buffer":0,"byteLength":660,"byteOffset":4,"target":34963},{"buffer":0,"byteLength":2640,"byteOffset":664,"target":34962},{"buffer":0,"byteLength":2640,"byteOffset":3304,"target":34962},{"buffer":0,"byteLength":1760,"byteOffset":5944,"target":34962},{"buffer":0,"byteLength":492,"byteOffset":7704,"target":34963},{"buffer":0,"byteLength":1968,"byteOffset":8196,"target":34962},{"buffer":0,"byteLength":1968,"byteOffset":10164,"target":34962},{"buffer":0,"byteLength":1312,"byteOffset":12132,"target":34962}],"buffers":[{"byteLength":13444,"uri":"SD_Env_PrisonCell_DoorFrame_01.bin"}],"images":[{"name":"SimpleDungeonTexture","uri":"../Textures/SimpleDungeonTexture.png"}],"materials":[{"alphaMode":"OPAQUE","doubleSided":false,"extras":{"fromFBX":{"isTruePBR":false,"shadingModel":"Lambert"}},"name":"lambert1","pbrMetallicRoughness":{"baseColorFactor":[0.800000011920929,0.800000011920929,0.800000011920929,1],"baseColorTexture":{"index":0,"texCoord":0},"metallicFactor":0.200000002980232,"roughnessFactor":0.800000011920929}}],"meshes":[{"name":"SD_Env_PrisonCell_DoorFrame_01","primitives":[{"attributes":{"NORMAL":3,"POSITION":2,"TEXCOORD_0":4},"indices":1,"material":0,"mode":4}]},{"name":"SD_Env_PrisonCell_Door_01","primitives":[{"attributes":{"NORMAL":7,"POSITION":6,"TEXCOORD_0":8},"indices":5,"material":0,"mode":4}]}],"nodes":[{"children":[1],"mesh":0,"name":"SD_Env_PrisonCell_DoorFrame_01","rotation":[0,0,0,1],"scale":[1,1,1],"translation":[0,0,0]},{"mesh":1,"name":"SD_Env_PrisonCell_Door_01","rotation":[0,0,0,1],"scale":[1,1,1],"translation":[0,0,0]}],"samplers":[{}],"scene":0,"scenes":[{"name":"Root Scene","nodes":[0]}],"textures":[{"name":"file1","sampler":0,"source":0}]}