{"accessors":[{"bufferView":0,"byteOffset":0,"componentType":5126,"count":1,"max":[0],"min":[0],"type":"SCALAR"},{"bufferView":1,"byteOffset":0,"componentType":5123,"count":876,"type":"SCALAR"},{"bufferView":2,"byteOffset":0,"componentType":5126,"count":638,"max":[0.0508180223405361,0.0564120560884476,0.0410094112157822],"min":[-0.0520154684782,-0.0219791829586,-0.04100941121578],"type":"VEC3"},{"bufferView":3,"byteOffset":0,"componentType":5126,"count":638,"type":"VEC3"},{"bufferView":4,"byteOffset":0,"componentType":5126,"count":638,"type":"VEC2"}],"animations":[{"channels":[],"name":"Take 001","samplers":[]}],"asset":{"generator":"FBX2glTF v0.13.1","version":"2.0"},"bufferViews":[{"buffer":0,"byteLength":4,"byteOffset":0},{"buffer":0,"byteLength":1752,"byteOffset":4,"target":34963},{"buffer":0,"byteLength":7656,"byteOffset":1756,"target":34962},{"buffer":0,"byteLength":7656,"byteOffset":9412,"target":34962},{"buffer":0,"byteLength":5104,"byteOffset":17068,"target":34962}],"buffers":[{"byteLength":22172,"uri":"SD_Env_Goblin_Hut_01.bin"}],"images":[{"name":"Medieval_Texture","uri":"Medieval_Texture.psd"}],"materials":[{"alphaMode":"OPAQUE","doubleSided":false,"extras":{"fromFBX":{"isTruePBR":false,"shadingModel":"Lambert"}},"name":"lambert75","pbrMetallicRoughness":{"baseColorFactor":[0.800000011920929,0.800000011920929,0.800000011920929,1],"baseColorTexture":{"index":0,"texCoord":0},"metallicFactor":0.200000002980232,"roughnessFactor":0.800000011920929}}],"meshes":[{"name":"SD_Env_Goblin_Hut_01","primitives":[{"attributes":{"NORMAL":3,"POSITION":2,"TEXCOORD_0":4},"indices":1,"material":0,"mode":4}]}],"nodes":[{"mesh":0,"name":"SD_Env_Goblin_Hut_01","rotation":[0,0,0,1],"scale":[1,1,1],"translation":[0,0,0]}],"samplers":[{}],"scene":0,"scenes":[{"name":"Root Scene","nodes":[0]}],"textures":[{"name":"file168","sampler":0,"source":0}]}