{"accessors":[{"bufferView":0,"byteOffset":0,"componentType":5126,"count":1,"max":[0],"min":[0],"type":"SCALAR"},{"bufferView":1,"byteOffset":0,"componentType":5123,"count":468,"type":"SCALAR"},{"bufferView":2,"byteOffset":0,"componentType":5126,"count":312,"max":[0.0549913384020329,0.00148610584437847,0.0542737580835819],"min":[-0.05499133840203,-0.00148615357466,-0.05427375808358],"type":"VEC3"},{"bufferView":3,"byteOffset":0,"componentType":5126,"count":312,"type":"VEC3"},{"bufferView":4,"byteOffset":0,"componentType":5126,"count":312,"type":"VEC2"}],"animations":[{"channels":[],"name":"Take 001","samplers":[]}],"asset":{"generator":"FBX2glTF v0.13.1","version":"2.0"},"bufferViews":[{"buffer":0,"byteLength":4,"byteOffset":0},{"buffer":0,"byteLength":936,"byteOffset":4,"target":34963},{"buffer":0,"byteLength":3744,"byteOffset":940,"target":34962},{"buffer":0,"byteLength":3744,"byteOffset":4684,"target":34962},{"buffer":0,"byteLength":2496,"byteOffset":8428,"target":34962}],"buffers":[{"byteLength":10924,"uri":"SD_Env_Goblin_Platform_Large_01.bin"}],"images":[{"name":"SimpleDungeonTexture","uri":"../Textures/SimpleDungeonTexture.png"}],"materials":[{"alphaMode":"OPAQUE","doubleSided":false,"extras":{"fromFBX":{"isTruePBR":false,"shadingModel":"Lambert"}},"name":"lambert1","pbrMetallicRoughness":{"baseColorFactor":[0.800000011920929,0.800000011920929,0.800000011920929,1],"baseColorTexture":{"index":0,"texCoord":0},"metallicFactor":0.200000002980232,"roughnessFactor":0.800000011920929}}],"meshes":[{"name":"SD_Env_Goblin_Platform_Large_01","primitives":[{"attributes":{"NORMAL":3,"POSITION":2,"TEXCOORD_0":4},"indices":1,"material":0,"mode":4}]}],"nodes":[{"mesh":0,"name":"SD_Env_Goblin_Platform_Large_01","rotation":[0,0,0,1],"scale":[1,1,1],"translation":[0,0,0]}],"samplers":[{}],"scene":0,"scenes":[{"name":"Root Scene","nodes":[0]}],"textures":[{"name":"file1","sampler":0,"source":0}]}