{"accessors":[{"bufferView":0,"byteOffset":0,"componentType":5126,"count":1,"max":[0],"min":[0],"type":"SCALAR"},{"bufferView":1,"byteOffset":0,"componentType":5123,"count":114,"type":"SCALAR"},{"bufferView":2,"byteOffset":0,"componentType":5126,"count":72,"max":[0.0999999940395355,0.199999988079071,0.00848152115941048],"min":[0.000000152587887214395,0,0],"type":"VEC3"},{"bufferView":3,"byteOffset":0,"componentType":5126,"count":72,"type":"VEC3"},{"bufferView":4,"byteOffset":0,"componentType":5126,"count":72,"type":"VEC2"}],"animations":[{"channels":[],"name":"Take 001","samplers":[]}],"asset":{"generator":"FBX2glTF v0.13.1","version":"2.0"},"bufferViews":[{"buffer":0,"byteLength":4,"byteOffset":0},{"buffer":0,"byteLength":228,"byteOffset":4,"target":34963},{"buffer":0,"byteLength":864,"byteOffset":232,"target":34962},{"buffer":0,"byteLength":864,"byteOffset":1096,"target":34962},{"buffer":0,"byteLength":576,"byteOffset":1960,"target":34962}],"buffers":[{"byteLength":2536,"uri":"SD_Env_Cave_Wall_02.bin"}],"images":[{"name":"SimpleDungeonTexture","uri":"../Textures/SimpleDungeonTexture.png"}],"materials":[{"alphaMode":"OPAQUE","doubleSided":false,"extras":{"fromFBX":{"isTruePBR":false,"shadingModel":"Lambert"}},"name":"lambert1","pbrMetallicRoughness":{"baseColorFactor":[0.800000011920929,0.800000011920929,0.800000011920929,1],"baseColorTexture":{"index":0,"texCoord":0},"metallicFactor":0.200000002980232,"roughnessFactor":0.800000011920929}}],"meshes":[{"name":"SD_Env_Cave_Wall_02","primitives":[{"attributes":{"NORMAL":3,"POSITION":2,"TEXCOORD_0":4},"indices":1,"material":0,"mode":4}]}],"nodes":[{"mesh":0,"name":"SD_Env_Cave_Wall_02","rotation":[0,0,0,1],"scale":[1,1,1],"translation":[0,0,0]}],"samplers":[{}],"scene":0,"scenes":[{"name":"Root Scene","nodes":[0]}],"textures":[{"name":"file1","sampler":0,"source":0}]}