{"accessors":[{"bufferView":0,"byteOffset":0,"componentType":5126,"count":1,"max":[0],"min":[0],"type":"SCALAR"},{"bufferView":1,"byteOffset":0,"componentType":5123,"count":72,"type":"SCALAR"},{"bufferView":2,"byteOffset":0,"componentType":5126,"count":48,"max":[0.0129204131662846,0.0406379364430904,0.00425170641392469],"min":[-0.01292042247951,0,-0.00425170641392],"type":"VEC3"},{"bufferView":3,"byteOffset":0,"componentType":5126,"count":48,"type":"VEC3"},{"bufferView":4,"byteOffset":0,"componentType":5126,"count":48,"type":"VEC2"},{"bufferView":5,"byteOffset":0,"componentType":5123,"count":372,"type":"SCALAR"},{"bufferView":6,"byteOffset":0,"componentType":5126,"count":240,"max":[0.00873317196965218,0.0328760892152786,0.00308688753284514],"min":[-0.00886219460517,0.00082858116365969,0.00152958557009697],"type":"VEC3"},{"bufferView":7,"byteOffset":0,"componentType":5126,"count":240,"type":"VEC3"},{"bufferView":8,"byteOffset":0,"componentType":5126,"count":240,"type":"VEC2"}],"animations":[{"channels":[],"name":"Take 001","samplers":[]}],"asset":{"generator":"FBX2glTF v0.13.1","version":"2.0"},"bufferViews":[{"buffer":0,"byteLength":4,"byteOffset":0},{"buffer":0,"byteLength":144,"byteOffset":4,"target":34963},{"buffer":0,"byteLength":576,"byteOffset":148,"target":34962},{"buffer":0,"byteLength":576,"byteOffset":724,"target":34962},{"buffer":0,"byteLength":384,"byteOffset":1300,"target":34962},{"buffer":0,"byteLength":744,"byteOffset":1684,"target":34963},{"buffer":0,"byteLength":2880,"byteOffset":2428,"target":34962},{"buffer":0,"byteLength":2880,"byteOffset":5308,"target":34962},{"buffer":0,"byteLength":1920,"byteOffset":8188,"target":34962}],"buffers":[{"byteLength":10108,"uri":"SD_Env_Door_03.bin"}],"images":[{"name":"SimpleDungeonTexture","uri":"../Textures/SimpleDungeonTexture.png"}],"materials":[{"alphaMode":"OPAQUE","doubleSided":false,"extras":{"fromFBX":{"isTruePBR":false,"shadingModel":"Lambert"}},"name":"lambert1","pbrMetallicRoughness":{"baseColorFactor":[0.800000011920929,0.800000011920929,0.800000011920929,1],"baseColorTexture":{"index":0,"texCoord":0},"metallicFactor":0.200000002980232,"roughnessFactor":0.800000011920929}}],"meshes":[{"name":"SD_Env_Door_03","primitives":[{"attributes":{"NORMAL":3,"POSITION":2,"TEXCOORD_0":4},"indices":1,"material":0,"mode":4}]},{"name":"Door","primitives":[{"attributes":{"NORMAL":7,"POSITION":6,"TEXCOORD_0":8},"indices":5,"material":0,"mode":4}]}],"nodes":[{"children":[1],"mesh":0,"name":"SD_Env_Door_03","rotation":[0,0,0,1],"scale":[1,1,1],"translation":[0,0,0]},{"mesh":1,"name":"Door","rotation":[0,0,0,1],"scale":[1,1,1],"translation":[0,0,-0.00254918029532]}],"samplers":[{}],"scene":0,"scenes":[{"name":"Root Scene","nodes":[0]}],"textures":[{"name":"file1","sampler":0,"source":0}]}