{"accessors":[{"bufferView":0,"byteOffset":0,"componentType":5126,"count":1,"max":[0],"min":[0],"type":"SCALAR"},{"bufferView":1,"byteOffset":0,"componentType":5123,"count":2280,"type":"SCALAR"},{"bufferView":2,"byteOffset":0,"componentType":5126,"count":1532,"max":[0.0130693325772882,0.0938688144087791,0.0097056869417429],"min":[-0.01306933257729,0.00057300523621961,-0.021470149979],"type":"VEC3"},{"bufferView":3,"byteOffset":0,"componentType":5126,"count":1532,"type":"VEC3"},{"bufferView":4,"byteOffset":0,"componentType":5126,"count":1532,"type":"VEC2"},{"bufferView":5,"byteOffset":0,"componentType":5123,"count":6,"type":"SCALAR"},{"bufferView":6,"byteOffset":0,"componentType":5126,"count":4,"max":[0.00800662953406572,0.0148820197209716,0.00496822874993086],"min":[-0.00800662953407,0.0148820178583264,-0.01761021278799],"type":"VEC3"},{"bufferView":7,"byteOffset":0,"componentType":5126,"count":4,"type":"VEC3"},{"bufferView":8,"byteOffset":0,"componentType":5126,"count":4,"type":"VEC2"}],"animations":[{"channels":[],"name":"Take 001","samplers":[]}],"asset":{"generator":"FBX2glTF v0.13.1","version":"2.0"},"bufferViews":[{"buffer":0,"byteLength":4,"byteOffset":0},{"buffer":0,"byteLength":4560,"byteOffset":4,"target":34963},{"buffer":0,"byteLength":18384,"byteOffset":4564,"target":34962},{"buffer":0,"byteLength":18384,"byteOffset":22948,"target":34962},{"buffer":0,"byteLength":12256,"byteOffset":41332,"target":34962},{"buffer":0,"byteLength":12,"byteOffset":53588,"target":34963},{"buffer":0,"byteLength":48,"byteOffset":53600,"target":34962},{"buffer":0,"byteLength":48,"byteOffset":53648,"target":34962},{"buffer":0,"byteLength":32,"byteOffset":53696,"target":34962}],"buffers":[{"byteLength":53728,"uri":"SD_Prop_LavaBucket_03.bin"}],"images":[{"name":"SimpleDungeonTexture","uri":"../Textures/SimpleDungeonTexture.png"},{"name":"Medieval_Texture","uri":"Medieval_Texture.psd"}],"materials":[{"alphaMode":"OPAQUE","doubleSided":false,"extras":{"fromFBX":{"isTruePBR":false,"shadingModel":"Lambert"}},"name":"lambert1","pbrMetallicRoughness":{"baseColorFactor":[0.800000011920929,0.800000011920929,0.800000011920929,1],"baseColorTexture":{"index":0,"texCoord":0},"metallicFactor":0.200000002980232,"roughnessFactor":0.800000011920929}},{"alphaMode":"OPAQUE","doubleSided":false,"extras":{"fromFBX":{"isTruePBR":false,"shadingModel":"Lambert"}},"name":"lambert2","pbrMetallicRoughness":{"baseColorFactor":[0.800000011920929,0.800000011920929,0.800000011920929,1],"baseColorTexture":{"index":1,"texCoord":0},"metallicFactor":0.200000002980232,"roughnessFactor":0.800000011920929}}],"meshes":[{"name":"SD_Prop_LavaBucket_03","primitives":[{"attributes":{"NORMAL":3,"POSITION":2,"TEXCOORD_0":4},"indices":1,"material":0,"mode":4},{"attributes":{"NORMAL":7,"POSITION":6,"TEXCOORD_0":8},"indices":5,"material":1,"mode":4}]}],"nodes":[{"mesh":0,"name":"SD_Prop_LavaBucket_03","rotation":[0,0,0,1],"scale":[1,1,1],"translation":[0,0,0]}],"samplers":[{}],"scene":0,"scenes":[{"name":"Root Scene","nodes":[0]}],"textures":[{"name":"file1","sampler":0,"source":0},{"name":"file148","sampler":0,"source":1}]}