{"accessors":[{"bufferView":0,"byteOffset":0,"componentType":5126,"count":1,"max":[0],"min":[0],"type":"SCALAR"},{"bufferView":1,"byteOffset":0,"componentType":5123,"count":564,"type":"SCALAR"},{"bufferView":2,"byteOffset":0,"componentType":5126,"count":360,"max":[0.0167610514909029,0.0255198087543249,0.00759830931201577],"min":[-0.0167610514909,0,-0.00759831396863],"type":"VEC3"},{"bufferView":3,"byteOffset":0,"componentType":5126,"count":360,"type":"VEC3"},{"bufferView":4,"byteOffset":0,"componentType":5126,"count":360,"type":"VEC2"}],"animations":[{"channels":[],"name":"Take 001","samplers":[]}],"asset":{"generator":"FBX2glTF v0.13.1","version":"2.0"},"bufferViews":[{"buffer":0,"byteLength":4,"byteOffset":0},{"buffer":0,"byteLength":1128,"byteOffset":4,"target":34963},{"buffer":0,"byteLength":4320,"byteOffset":1132,"target":34962},{"buffer":0,"byteLength":4320,"byteOffset":5452,"target":34962},{"buffer":0,"byteLength":2880,"byteOffset":9772,"target":34962}],"buffers":[{"byteLength":12652,"uri":"SD_Prop_Bed_03.bin"}],"images":[{"name":"SimpleDungeonTexture","uri":"../Textures/SimpleDungeonTexture.png"}],"materials":[{"alphaMode":"OPAQUE","doubleSided":false,"extras":{"fromFBX":{"isTruePBR":false,"shadingModel":"Lambert"}},"name":"lambert1","pbrMetallicRoughness":{"baseColorFactor":[0.800000011920929,0.800000011920929,0.800000011920929,1],"baseColorTexture":{"index":0,"texCoord":0},"metallicFactor":0.200000002980232,"roughnessFactor":0.800000011920929}}],"meshes":[{"name":"SD_Prop_Bed_03","primitives":[{"attributes":{"NORMAL":3,"POSITION":2,"TEXCOORD_0":4},"indices":1,"material":0,"mode":4}]}],"nodes":[{"mesh":0,"name":"SD_Prop_Bed_03","rotation":[0,0,0,1],"scale":[1,1,1],"translation":[0,0,0]}],"samplers":[{}],"scene":0,"scenes":[{"name":"Root Scene","nodes":[0]}],"textures":[{"name":"file1","sampler":0,"source":0}]}