{"accessors":[{"bufferView":0,"byteOffset":0,"componentType":5126,"count":1,"max":[0],"min":[0],"type":"SCALAR"},{"bufferView":1,"byteOffset":0,"componentType":5123,"count":264,"type":"SCALAR"},{"bufferView":2,"byteOffset":0,"componentType":5126,"count":136,"max":[0.0104620000347495,0.0057923118583858,0.00499999988824129],"min":[-0.01046200003475,0,-0.00499999988824],"type":"VEC3"},{"bufferView":3,"byteOffset":0,"componentType":5126,"count":136,"type":"VEC3"},{"bufferView":4,"byteOffset":0,"componentType":5126,"count":136,"type":"VEC2"},{"bufferView":5,"byteOffset":0,"componentType":5123,"count":336,"type":"SCALAR"},{"bufferView":6,"byteOffset":0,"componentType":5126,"count":212,"max":[0.00946320500224829,0.0107878725975752,0.00571547960862517],"min":[-0.00946320500225,0.00443308101966977,-0.00531327724457],"type":"VEC3"},{"bufferView":7,"byteOffset":0,"componentType":5126,"count":212,"type":"VEC3"},{"bufferView":8,"byteOffset":0,"componentType":5126,"count":212,"type":"VEC2"},{"bufferView":9,"byteOffset":0,"componentType":5123,"count":993,"type":"SCALAR"},{"bufferView":10,"byteOffset":0,"componentType":5126,"count":575,"max":[0.00867293309420347,0.00814824923872948,0.00437078950926661],"min":[-0.0085693448782,0.00081207288894802,-0.00475571164861],"type":"VEC3"},{"bufferView":11,"byteOffset":0,"componentType":5126,"count":575,"type":"VEC3"},{"bufferView":12,"byteOffset":0,"componentType":5126,"count":575,"type":"VEC2"}],"animations":[{"channels":[],"name":"Take 001","samplers":[]}],"asset":{"generator":"FBX2glTF v0.13.1","version":"2.0"},"bufferViews":[{"buffer":0,"byteLength":4,"byteOffset":0},{"buffer":0,"byteLength":528,"byteOffset":4,"target":34963},{"buffer":0,"byteLength":1632,"byteOffset":532,"target":34962},{"buffer":0,"byteLength":1632,"byteOffset":2164,"target":34962},{"buffer":0,"byteLength":1088,"byteOffset":3796,"target":34962},{"buffer":0,"byteLength":672,"byteOffset":4884,"target":34963},{"buffer":0,"byteLength":2544,"byteOffset":5556,"target":34962},{"buffer":0,"byteLength":2544,"byteOffset":8100,"target":34962},{"buffer":0,"byteLength":1696,"byteOffset":10644,"target":34962},{"buffer":0,"byteLength":1986,"byteOffset":12340,"target":34963},{"buffer":0,"byteLength":6900,"byteOffset":14328,"target":34962},{"buffer":0,"byteLength":6900,"byteOffset":21228,"target":34962},{"buffer":0,"byteLength":4600,"byteOffset":28128,"target":34962}],"buffers":[{"byteLength":32728,"uri":"SD_Prop_Chest_03.bin"}],"images":[{"name":"SimpleDungeonTexture","uri":"../Textures/SimpleDungeonTexture.png"}],"materials":[{"alphaMode":"OPAQUE","doubleSided":false,"extras":{"fromFBX":{"isTruePBR":false,"shadingModel":"Lambert"}},"name":"lambert1","pbrMetallicRoughness":{"baseColorFactor":[0.800000011920929,0.800000011920929,0.800000011920929,1],"baseColorTexture":{"index":0,"texCoord":0},"metallicFactor":0.200000002980232,"roughnessFactor":0.800000011920929}}],"meshes":[{"name":"SD_Prop_Chest_03","primitives":[{"attributes":{"NORMAL":3,"POSITION":2,"TEXCOORD_0":4},"indices":1,"material":0,"mode":4}]},{"name":"Chest_Lid","primitives":[{"attributes":{"NORMAL":7,"POSITION":6,"TEXCOORD_0":8},"indices":5,"material":0,"mode":4}]},{"name":"Treasure","primitives":[{"attributes":{"NORMAL":11,"POSITION":10,"TEXCOORD_0":12},"indices":9,"material":0,"mode":4}]}],"nodes":[{"children":[1,2],"mesh":0,"name":"SD_Prop_Chest_03","rotation":[0,0,0,1],"scale":[1,1,1],"translation":[0,0,0]},{"mesh":1,"name":"Chest_Lid","rotation":[0,0,0,1],"scale":[1,1,1],"translation":[0,0,0]},{"mesh":2,"name":"Treasure","rotation":[0,0,0,1],"scale":[1,1,1],"translation":[0,0,0]}],"samplers":[{}],"scene":0,"scenes":[{"name":"Root Scene","nodes":[0]}],"textures":[{"name":"file1","sampler":0,"source":0}]}