{"accessors":[{"bufferView":0,"byteOffset":0,"componentType":5126,"count":1,"max":[0],"min":[0],"type":"SCALAR"},{"bufferView":1,"byteOffset":0,"componentType":5123,"count":600,"type":"SCALAR"},{"bufferView":2,"byteOffset":0,"componentType":5126,"count":386,"max":[0.00656112655997276,0.0124821234494448,0.00656113587319851],"min":[-0.00656112655997,0.0003209343412891,-0.0065611358732],"type":"VEC3"},{"bufferView":3,"byteOffset":0,"componentType":5126,"count":386,"type":"VEC3"},{"bufferView":4,"byteOffset":0,"componentType":5126,"count":386,"type":"VEC2"}],"animations":[{"channels":[],"name":"Take 001","samplers":[]}],"asset":{"generator":"FBX2glTF v0.13.1","version":"2.0"},"bufferViews":[{"buffer":0,"byteLength":4,"byteOffset":0},{"buffer":0,"byteLength":1200,"byteOffset":4,"target":34963},{"buffer":0,"byteLength":4632,"byteOffset":1204,"target":34962},{"buffer":0,"byteLength":4632,"byteOffset":5836,"target":34962},{"buffer":0,"byteLength":3088,"byteOffset":10468,"target":34962}],"buffers":[{"byteLength":13556,"uri":"SD_Prop_Barrel_Broken_01.bin"}],"materials":[{"alphaMode":"OPAQUE","doubleSided":false,"extras":{"fromFBX":{"isTruePBR":false,"shadingModel":"Lambert"}},"name":"lambert80","pbrMetallicRoughness":{"baseColorFactor":[0.400000005960464,0.400000005960464,0.400000005960464,1],"metallicFactor":0.200000002980232,"roughnessFactor":0.800000011920929}}],"meshes":[{"name":"SD_Prop_Barrel_Broken_01","primitives":[{"attributes":{"NORMAL":3,"POSITION":2,"TEXCOORD_0":4},"indices":1,"material":0,"mode":4}]}],"nodes":[{"mesh":0,"name":"SD_Prop_Barrel_Broken_01","rotation":[0,0,0,1],"scale":[1,1,1],"translation":[0,0,0]}],"samplers":[{}],"scene":0,"scenes":[{"name":"Root Scene","nodes":[0]}]}