{"accessors":[{"bufferView":0,"byteOffset":0,"componentType":5126,"count":1,"max":[0],"min":[0],"type":"SCALAR"},{"bufferView":1,"byteOffset":0,"componentType":5123,"count":204,"type":"SCALAR"},{"bufferView":2,"byteOffset":0,"componentType":5126,"count":96,"max":[0.00499999988824129,0.0057923118583858,0.00499999988824129],"min":[-0.00499999988824,0,-0.00499999988824],"type":"VEC3"},{"bufferView":3,"byteOffset":0,"componentType":5126,"count":96,"type":"VEC3"},{"bufferView":4,"byteOffset":0,"componentType":5126,"count":96,"type":"VEC2"},{"bufferView":5,"byteOffset":0,"componentType":5123,"count":240,"type":"SCALAR"},{"bufferView":6,"byteOffset":0,"componentType":5126,"count":146,"max":[0.00531328190118074,0.00925177708268166,0.00571548426523805],"min":[-0.00531328190118,0.00443308055400848,-0.00531328190118],"type":"VEC3"},{"bufferView":7,"byteOffset":0,"componentType":5126,"count":146,"type":"VEC3"},{"bufferView":8,"byteOffset":0,"componentType":5126,"count":146,"type":"VEC2"},{"bufferView":9,"byteOffset":0,"componentType":5123,"count":708,"type":"SCALAR"},{"bufferView":10,"byteOffset":0,"componentType":5126,"count":394,"max":[0.0049169254489243,0.00847889017313719,0.0041154813952744],"min":[-0.00481263129041,0.00083325809100642,-0.00480848085135],"type":"VEC3"},{"bufferView":11,"byteOffset":0,"componentType":5126,"count":394,"type":"VEC3"},{"bufferView":12,"byteOffset":0,"componentType":5126,"count":394,"type":"VEC2"}],"animations":[{"channels":[],"name":"Take 001","samplers":[]}],"asset":{"generator":"FBX2glTF v0.13.1","version":"2.0"},"bufferViews":[{"buffer":0,"byteLength":4,"byteOffset":0},{"buffer":0,"byteLength":408,"byteOffset":4,"target":34963},{"buffer":0,"byteLength":1152,"byteOffset":412,"target":34962},{"buffer":0,"byteLength":1152,"byteOffset":1564,"target":34962},{"buffer":0,"byteLength":768,"byteOffset":2716,"target":34962},{"buffer":0,"byteLength":480,"byteOffset":3484,"target":34963},{"buffer":0,"byteLength":1752,"byteOffset":3964,"target":34962},{"buffer":0,"byteLength":1752,"byteOffset":5716,"target":34962},{"buffer":0,"byteLength":1168,"byteOffset":7468,"target":34962},{"buffer":0,"byteLength":1416,"byteOffset":8636,"target":34963},{"buffer":0,"byteLength":4728,"byteOffset":10052,"target":34962},{"buffer":0,"byteLength":4728,"byteOffset":14780,"target":34962},{"buffer":0,"byteLength":3152,"byteOffset":19508,"target":34962}],"buffers":[{"byteLength":22660,"uri":"SD_Prop_Chest_01.bin"}],"images":[{"name":"SimpleDungeonTexture","uri":"../Textures/SimpleDungeonTexture.png"}],"materials":[{"alphaMode":"OPAQUE","doubleSided":false,"extras":{"fromFBX":{"isTruePBR":false,"shadingModel":"Lambert"}},"name":"lambert1","pbrMetallicRoughness":{"baseColorFactor":[0.800000011920929,0.800000011920929,0.800000011920929,1],"baseColorTexture":{"index":0,"texCoord":0},"metallicFactor":0.200000002980232,"roughnessFactor":0.800000011920929}}],"meshes":[{"name":"SD_Prop_Chest_01","primitives":[{"attributes":{"NORMAL":3,"POSITION":2,"TEXCOORD_0":4},"indices":1,"material":0,"mode":4}]},{"name":"Chest_Lid","primitives":[{"attributes":{"NORMAL":7,"POSITION":6,"TEXCOORD_0":8},"indices":5,"material":0,"mode":4}]},{"name":"Treasure","primitives":[{"attributes":{"NORMAL":11,"POSITION":10,"TEXCOORD_0":12},"indices":9,"material":0,"mode":4}]}],"nodes":[{"children":[1,2],"mesh":0,"name":"SD_Prop_Chest_01","rotation":[0,0,0,1],"scale":[1,1,1],"translation":[0,0,0]},{"mesh":1,"name":"Chest_Lid","rotation":[0,0,0,1],"scale":[1,1,1],"translation":[0,0,0]},{"mesh":2,"name":"Treasure","rotation":[0,0,0,1],"scale":[1,1,1],"translation":[0,0,0]}],"samplers":[{}],"scene":0,"scenes":[{"name":"Root Scene","nodes":[0]}],"textures":[{"name":"file1","sampler":0,"source":0}]}