{"accessors":[{"bufferView":0,"byteOffset":0,"componentType":5126,"count":1,"max":[0],"min":[0],"type":"SCALAR"},{"bufferView":1,"byteOffset":0,"componentType":5123,"count":78,"type":"SCALAR"},{"bufferView":2,"byteOffset":0,"componentType":5126,"count":52,"max":[0.00301055912859738,0.00792958214879036,0.00288805947639048],"min":[-0.0030105591286,-0.00792958028615,0],"type":"VEC3"},{"bufferView":3,"byteOffset":0,"componentType":5126,"count":52,"type":"VEC3"},{"bufferView":4,"byteOffset":0,"componentType":5126,"count":52,"type":"VEC2"},{"bufferView":5,"byteOffset":0,"componentType":5123,"count":78,"type":"SCALAR"},{"bufferView":6,"byteOffset":0,"componentType":5126,"count":52,"max":[0.00112337106838822,0.00117230892647058,0.00829814933240414],"min":[-0.00122131349053,-0.00117234699428,0.00258158682845533],"type":"VEC3"},{"bufferView":7,"byteOffset":0,"componentType":5126,"count":52,"type":"VEC3"},{"bufferView":8,"byteOffset":0,"componentType":5126,"count":52,"type":"VEC2"}],"animations":[{"channels":[],"name":"Take 001","samplers":[]}],"asset":{"generator":"FBX2glTF v0.13.1","version":"2.0"},"bufferViews":[{"buffer":0,"byteLength":4,"byteOffset":0},{"buffer":0,"byteLength":156,"byteOffset":4,"target":34963},{"buffer":0,"byteLength":624,"byteOffset":160,"target":34962},{"buffer":0,"byteLength":624,"byteOffset":784,"target":34962},{"buffer":0,"byteLength":416,"byteOffset":1408,"target":34962},{"buffer":0,"byteLength":156,"byteOffset":1824,"target":34963},{"buffer":0,"byteLength":624,"byteOffset":1980,"target":34962},{"buffer":0,"byteLength":624,"byteOffset":2604,"target":34962},{"buffer":0,"byteLength":416,"byteOffset":3228,"target":34962}],"buffers":[{"byteLength":3644,"uri":"SD_Prop_Lever_Wall_01.bin"}],"images":[{"name":"SimpleDungeonTexture","uri":"../Textures/SimpleDungeonTexture.png"}],"materials":[{"alphaMode":"OPAQUE","doubleSided":false,"extras":{"fromFBX":{"isTruePBR":false,"shadingModel":"Lambert"}},"name":"lambert1","pbrMetallicRoughness":{"baseColorFactor":[0.800000011920929,0.800000011920929,0.800000011920929,1],"baseColorTexture":{"index":0,"texCoord":0},"metallicFactor":0.200000002980232,"roughnessFactor":0.800000011920929}}],"meshes":[{"name":"SD_Prop_Lever_Wall_01","primitives":[{"attributes":{"NORMAL":3,"POSITION":2,"TEXCOORD_0":4},"indices":1,"material":0,"mode":4}]},{"name":"Handle","primitives":[{"attributes":{"NORMAL":7,"POSITION":6,"TEXCOORD_0":8},"indices":5,"material":0,"mode":4}]}],"nodes":[{"children":[1],"mesh":0,"name":"SD_Prop_Lever_Wall_01","rotation":[0,0,0,1],"scale":[1,1,1],"translation":[0,0,0]},{"mesh":1,"name":"Handle","rotation":[0,0,0,1],"scale":[1,1,1],"translation":[0,0,0]}],"samplers":[{}],"scene":0,"scenes":[{"name":"Root Scene","nodes":[0]}],"textures":[{"name":"file1","sampler":0,"source":0}]}