{"accessors":[{"bufferView":0,"byteOffset":0,"componentType":5126,"count":1,"max":[0],"min":[0],"type":"SCALAR"},{"bufferView":1,"byteOffset":0,"componentType":5123,"count":1215,"type":"SCALAR"},{"bufferView":2,"byteOffset":0,"componentType":5126,"count":789,"max":[0.0347916036844254,0.0127829974517226,0.00319078448228538],"min":[0.00000000238418573772492,-0.0062503204681,-0.00000000476837],"type":"VEC3"},{"bufferView":3,"byteOffset":0,"componentType":5126,"count":789,"type":"VEC3"},{"bufferView":4,"byteOffset":0,"componentType":5126,"count":789,"type":"VEC2"}],"animations":[{"channels":[],"name":"Take 001","samplers":[]}],"asset":{"generator":"FBX2glTF v0.13.1","version":"2.0"},"bufferViews":[{"buffer":0,"byteLength":4,"byteOffset":0},{"buffer":0,"byteLength":2430,"byteOffset":4,"target":34963},{"buffer":0,"byteLength":9468,"byteOffset":2436,"target":34962},{"buffer":0,"byteLength":9468,"byteOffset":11904,"target":34962},{"buffer":0,"byteLength":6312,"byteOffset":21372,"target":34962}],"buffers":[{"byteLength":27684,"uri":"SD_Prop_Toolrack_01.bin"}],"images":[{"name":"SimpleDungeonTexture","uri":"../Textures/SimpleDungeonTexture.png"}],"materials":[{"alphaMode":"OPAQUE","doubleSided":false,"extras":{"fromFBX":{"isTruePBR":false,"shadingModel":"Lambert"}},"name":"lambert1","pbrMetallicRoughness":{"baseColorFactor":[0.800000011920929,0.800000011920929,0.800000011920929,1],"baseColorTexture":{"index":0,"texCoord":0},"metallicFactor":0.200000002980232,"roughnessFactor":0.800000011920929}}],"meshes":[{"name":"SD_Prop_Toolrack_01","primitives":[{"attributes":{"NORMAL":3,"POSITION":2,"TEXCOORD_0":4},"indices":1,"material":0,"mode":4}]}],"nodes":[{"mesh":0,"name":"SD_Prop_Toolrack_01","rotation":[0,0,0,1],"scale":[1,1,1],"translation":[0,0,0]}],"samplers":[{}],"scene":0,"scenes":[{"name":"Root Scene","nodes":[0]}],"textures":[{"name":"file1","sampler":0,"source":0}]}