{"accessors":[{"bufferView":0,"byteOffset":0,"componentType":5126,"count":1,"max":[0],"min":[0],"type":"SCALAR"},{"bufferView":1,"byteOffset":0,"componentType":5123,"count":2397,"type":"SCALAR"},{"bufferView":2,"byteOffset":0,"componentType":5126,"count":1395,"max":[0.0140413278713822,0.0161647647619247,0.00740077951923013],"min":[-0.01404134742916,0,-0.00793511327356],"type":"VEC3"},{"bufferView":3,"byteOffset":0,"componentType":5126,"count":1395,"type":"VEC3"},{"bufferView":4,"byteOffset":0,"componentType":5126,"count":1395,"type":"VEC2"},{"bufferView":5,"byteOffset":0,"componentType":5123,"count":576,"type":"SCALAR"},{"bufferView":6,"byteOffset":0,"componentType":5126,"count":318,"max":[0.0123124690726399,0.0194154493510723,0.007935113273561],"min":[-0.01248643826693,0.00887337420135736,-0.00738120079041],"type":"VEC3"},{"bufferView":7,"byteOffset":0,"componentType":5126,"count":318,"type":"VEC3"},{"bufferView":8,"byteOffset":0,"componentType":5126,"count":318,"type":"VEC2"}],"animations":[{"channels":[],"name":"Take 001","samplers":[]}],"asset":{"generator":"FBX2glTF v0.13.1","version":"2.0"},"bufferViews":[{"buffer":0,"byteLength":4,"byteOffset":0},{"buffer":0,"byteLength":4794,"byteOffset":4,"target":34963},{"buffer":0,"byteLength":16740,"byteOffset":4800,"target":34962},{"buffer":0,"byteLength":16740,"byteOffset":21540,"target":34962},{"buffer":0,"byteLength":11160,"byteOffset":38280,"target":34962},{"buffer":0,"byteLength":1152,"byteOffset":49440,"target":34963},{"buffer":0,"byteLength":3816,"byteOffset":50592,"target":34962},{"buffer":0,"byteLength":3816,"byteOffset":54408,"target":34962},{"buffer":0,"byteLength":2544,"byteOffset":58224,"target":34962}],"buffers":[{"byteLength":60768,"uri":"SD_Prop_Chest_Skull_01.bin"}],"materials":[{"alphaMode":"OPAQUE","doubleSided":false,"extras":{"fromFBX":{"isTruePBR":false,"shadingModel":"Lambert"}},"name":"lambert80","pbrMetallicRoughness":{"baseColorFactor":[0.400000005960464,0.400000005960464,0.400000005960464,1],"metallicFactor":0.200000002980232,"roughnessFactor":0.800000011920929}}],"meshes":[{"name":"SD_Prop_Chest_Skull_01","primitives":[{"attributes":{"NORMAL":3,"POSITION":2,"TEXCOORD_0":4},"indices":1,"material":0,"mode":4}]},{"name":"SD_Prop_Chest_Skull_Lid_01","primitives":[{"attributes":{"NORMAL":7,"POSITION":6,"TEXCOORD_0":8},"indices":5,"material":0,"mode":4}]}],"nodes":[{"children":[1],"mesh":0,"name":"SD_Prop_Chest_Skull_01","rotation":[0,0,0,1],"scale":[1,1,1],"translation":[0,0,0]},{"mesh":1,"name":"SD_Prop_Chest_Skull_Lid_01","rotation":[0,0,0,1],"scale":[1,1,1],"translation":[0,0,0]}],"samplers":[{}],"scene":0,"scenes":[{"name":"Root Scene","nodes":[0]}]}