{"accessors":[{"bufferView":0,"byteOffset":0,"componentType":5126,"count":1,"max":[0],"min":[0],"type":"SCALAR"},{"bufferView":1,"byteOffset":0,"componentType":5123,"count":318,"type":"SCALAR"},{"bufferView":2,"byteOffset":0,"componentType":5126,"count":197,"max":[0.0039181113243103,0.00426656240597367,0.00267181918025017],"min":[-0.00391811132431,-0.00426656240597,-0.00267181918025],"type":"VEC3"},{"bufferView":3,"byteOffset":0,"componentType":5126,"count":197,"type":"VEC3"},{"bufferView":4,"byteOffset":0,"componentType":5126,"count":197,"type":"VEC2"}],"animations":[{"channels":[],"name":"Take 001","samplers":[]}],"asset":{"generator":"FBX2glTF v0.13.1","version":"2.0"},"bufferViews":[{"buffer":0,"byteLength":4,"byteOffset":0},{"buffer":0,"byteLength":636,"byteOffset":4,"target":34963},{"buffer":0,"byteLength":2364,"byteOffset":640,"target":34962},{"buffer":0,"byteLength":2364,"byteOffset":3004,"target":34962},{"buffer":0,"byteLength":1576,"byteOffset":5368,"target":34962}],"buffers":[{"byteLength":6944,"uri":"SD_Prop_WallCuffs_01.bin"}],"images":[{"name":"SimpleDungeonTexture","uri":"../Textures/SimpleDungeonTexture.png"}],"materials":[{"alphaMode":"OPAQUE","doubleSided":false,"extras":{"fromFBX":{"isTruePBR":false,"shadingModel":"Lambert"}},"name":"lambert1","pbrMetallicRoughness":{"baseColorFactor":[0.800000011920929,0.800000011920929,0.800000011920929,1],"baseColorTexture":{"index":0,"texCoord":0},"metallicFactor":0.200000002980232,"roughnessFactor":0.800000011920929}}],"meshes":[{"name":"SD_Prop_WallCuffs_01","primitives":[{"attributes":{"NORMAL":3,"POSITION":2,"TEXCOORD_0":4},"indices":1,"material":0,"mode":4}]}],"nodes":[{"mesh":0,"name":"SD_Prop_WallCuffs_01","rotation":[0,0,0,1],"scale":[1,1,1],"translation":[0,0,0]}],"samplers":[{}],"scene":0,"scenes":[{"name":"Root Scene","nodes":[0]}],"textures":[{"name":"file1","sampler":0,"source":0}]}