{"accessors":[{"bufferView":0,"byteOffset":0,"componentType":5126,"count":1,"max":[0],"min":[0],"type":"SCALAR"},{"bufferView":1,"byteOffset":0,"componentType":5123,"count":204,"type":"SCALAR"},{"bufferView":2,"byteOffset":0,"componentType":5126,"count":104,"max":[0.00890523474663496,0.0057923118583858,0.00499999988824129],"min":[-0.00890523474663,0,-0.00499999988824],"type":"VEC3"},{"bufferView":3,"byteOffset":0,"componentType":5126,"count":104,"type":"VEC3"},{"bufferView":4,"byteOffset":0,"componentType":5126,"count":104,"type":"VEC2"},{"bufferView":5,"byteOffset":0,"componentType":5123,"count":336,"type":"SCALAR"},{"bufferView":6,"byteOffset":0,"componentType":5126,"count":202,"max":[0.00946320500224829,0.00925177708268166,0.00571548426523805],"min":[-0.00946320500225,0.00443308055400848,-0.00531328190118],"type":"VEC3"},{"bufferView":7,"byteOffset":0,"componentType":5126,"count":202,"type":"VEC3"},{"bufferView":8,"byteOffset":0,"componentType":5126,"count":202,"type":"VEC2"},{"bufferView":9,"byteOffset":0,"componentType":5123,"count":993,"type":"SCALAR"},{"bufferView":10,"byteOffset":0,"componentType":5126,"count":575,"max":[0.00840576179325581,0.00819727964699268,0.00446951389312744],"min":[-0.00883651711047,0.00081207288894802,-0.00465698726475],"type":"VEC3"},{"bufferView":11,"byteOffset":0,"componentType":5126,"count":575,"type":"VEC3"},{"bufferView":12,"byteOffset":0,"componentType":5126,"count":575,"type":"VEC2"}],"animations":[{"channels":[],"name":"Take 001","samplers":[]}],"asset":{"generator":"FBX2glTF v0.13.1","version":"2.0"},"bufferViews":[{"buffer":0,"byteLength":4,"byteOffset":0},{"buffer":0,"byteLength":408,"byteOffset":4,"target":34963},{"buffer":0,"byteLength":1248,"byteOffset":412,"target":34962},{"buffer":0,"byteLength":1248,"byteOffset":1660,"target":34962},{"buffer":0,"byteLength":832,"byteOffset":2908,"target":34962},{"buffer":0,"byteLength":672,"byteOffset":3740,"target":34963},{"buffer":0,"byteLength":2424,"byteOffset":4412,"target":34962},{"buffer":0,"byteLength":2424,"byteOffset":6836,"target":34962},{"buffer":0,"byteLength":1616,"byteOffset":9260,"target":34962},{"buffer":0,"byteLength":1986,"byteOffset":10876,"target":34963},{"buffer":0,"byteLength":6900,"byteOffset":12864,"target":34962},{"buffer":0,"byteLength":6900,"byteOffset":19764,"target":34962},{"buffer":0,"byteLength":4600,"byteOffset":26664,"target":34962}],"buffers":[{"byteLength":31264,"uri":"SD_Prop_Chest_02.bin"}],"images":[{"name":"SimpleDungeonTexture","uri":"../Textures/SimpleDungeonTexture.png"}],"materials":[{"alphaMode":"OPAQUE","doubleSided":false,"extras":{"fromFBX":{"isTruePBR":false,"shadingModel":"Lambert"}},"name":"lambert1","pbrMetallicRoughness":{"baseColorFactor":[0.800000011920929,0.800000011920929,0.800000011920929,1],"baseColorTexture":{"index":0,"texCoord":0},"metallicFactor":0.200000002980232,"roughnessFactor":0.800000011920929}}],"meshes":[{"name":"SD_Prop_Chest_02","primitives":[{"attributes":{"NORMAL":3,"POSITION":2,"TEXCOORD_0":4},"indices":1,"material":0,"mode":4}]},{"name":"Chest_Lid","primitives":[{"attributes":{"NORMAL":7,"POSITION":6,"TEXCOORD_0":8},"indices":5,"material":0,"mode":4}]},{"name":"Treasure","primitives":[{"attributes":{"NORMAL":11,"POSITION":10,"TEXCOORD_0":12},"indices":9,"material":0,"mode":4}]}],"nodes":[{"children":[1,2],"mesh":0,"name":"SD_Prop_Chest_02","rotation":[0,0,0,1],"scale":[1,1,1],"translation":[0,0,0]},{"mesh":1,"name":"Chest_Lid","rotation":[0,0,0,1],"scale":[1,1,1],"translation":[0,0,0]},{"mesh":2,"name":"Treasure","rotation":[0,0,0,1],"scale":[1,1,1],"translation":[0,0,0]}],"samplers":[{}],"scene":0,"scenes":[{"name":"Root Scene","nodes":[0]}],"textures":[{"name":"file1","sampler":0,"source":0}]}