{"accessors":[{"bufferView":0,"byteOffset":0,"componentType":5126,"count":1,"max":[0],"min":[0],"type":"SCALAR"},{"bufferView":1,"byteOffset":0,"componentType":5123,"count":474,"type":"SCALAR"},{"bufferView":2,"byteOffset":0,"componentType":5126,"count":284,"max":[0.00298693496733904,0.0117030115798116,0.0105896256864071],"min":[-0.00298693496734,-0.00517238676548,0],"type":"VEC3"},{"bufferView":3,"byteOffset":0,"componentType":5126,"count":284,"type":"VEC3"},{"bufferView":4,"byteOffset":0,"componentType":5126,"count":284,"type":"VEC2"},{"bufferView":5,"byteOffset":0,"componentType":5123,"count":30,"type":"SCALAR"},{"bufferView":6,"byteOffset":0,"componentType":5126,"count":12,"max":[0.00173010956496,0.00768283708021045,0.00835012458264828],"min":[-0.00173010956496,0.00499066337943077,0.00506629794836044],"type":"VEC3"},{"bufferView":7,"byteOffset":0,"componentType":5126,"count":12,"type":"VEC3"},{"bufferView":8,"byteOffset":0,"componentType":5126,"count":12,"type":"VEC2"}],"animations":[{"channels":[],"name":"Take 001","samplers":[]}],"asset":{"generator":"FBX2glTF v0.13.1","version":"2.0"},"bufferViews":[{"buffer":0,"byteLength":4,"byteOffset":0},{"buffer":0,"byteLength":948,"byteOffset":4,"target":34963},{"buffer":0,"byteLength":3408,"byteOffset":952,"target":34962},{"buffer":0,"byteLength":3408,"byteOffset":4360,"target":34962},{"buffer":0,"byteLength":2272,"byteOffset":7768,"target":34962},{"buffer":0,"byteLength":60,"byteOffset":10040,"target":34963},{"buffer":0,"byteLength":144,"byteOffset":10100,"target":34962},{"buffer":0,"byteLength":144,"byteOffset":10244,"target":34962},{"buffer":0,"byteLength":96,"byteOffset":10388,"target":34962}],"buffers":[{"byteLength":10484,"uri":"SD_Prop_Torch_01.bin"}],"images":[{"name":"SimpleDungeonTexture","uri":"../Textures/SimpleDungeonTexture.png"},{"name":"Medieval_Texture","uri":"Medieval_Texture.psd"}],"materials":[{"alphaMode":"OPAQUE","doubleSided":false,"extras":{"fromFBX":{"isTruePBR":false,"shadingModel":"Lambert"}},"name":"lambert1","pbrMetallicRoughness":{"baseColorFactor":[0.800000011920929,0.800000011920929,0.800000011920929,1],"baseColorTexture":{"index":0,"texCoord":0},"metallicFactor":0.200000002980232,"roughnessFactor":0.800000011920929}},{"alphaMode":"OPAQUE","doubleSided":false,"extras":{"fromFBX":{"isTruePBR":false,"shadingModel":"Lambert"}},"name":"lambert2","pbrMetallicRoughness":{"baseColorFactor":[0.800000011920929,0.800000011920929,0.800000011920929,1],"baseColorTexture":{"index":1,"texCoord":0},"metallicFactor":0.200000002980232,"roughnessFactor":0.800000011920929}}],"meshes":[{"name":"SD_Prop_Torch_01","primitives":[{"attributes":{"NORMAL":3,"POSITION":2,"TEXCOORD_0":4},"indices":1,"material":0,"mode":4},{"attributes":{"NORMAL":7,"POSITION":6,"TEXCOORD_0":8},"indices":5,"material":1,"mode":4}]}],"nodes":[{"mesh":0,"name":"SD_Prop_Torch_01","rotation":[0,0,0,1],"scale":[1,1,1],"translation":[0,0,0]}],"samplers":[{}],"scene":0,"scenes":[{"name":"Root Scene","nodes":[0]}],"textures":[{"name":"file1","sampler":0,"source":0},{"name":"file148","sampler":0,"source":1}]}