{"accessors":[{"bufferView":0,"byteOffset":0,"componentType":5126,"count":1,"max":[0],"min":[0],"type":"SCALAR"},{"bufferView":1,"byteOffset":0,"componentType":5123,"count":444,"type":"SCALAR"},{"bufferView":2,"byteOffset":0,"componentType":5126,"count":288,"max":[0.00419324869289994,0.0189437456429005,0.00419326405972242],"min":[-0.00419328687713,0,-0.00419326405972],"type":"VEC3"},{"bufferView":3,"byteOffset":0,"componentType":5126,"count":288,"type":"VEC3"},{"bufferView":4,"byteOffset":0,"componentType":5126,"count":288,"type":"VEC2"}],"animations":[{"channels":[],"name":"Take 001","samplers":[]}],"asset":{"generator":"FBX2glTF v0.13.1","version":"2.0"},"bufferViews":[{"buffer":0,"byteLength":4,"byteOffset":0},{"buffer":0,"byteLength":888,"byteOffset":4,"target":34963},{"buffer":0,"byteLength":3456,"byteOffset":892,"target":34962},{"buffer":0,"byteLength":3456,"byteOffset":4348,"target":34962},{"buffer":0,"byteLength":2304,"byteOffset":7804,"target":34962}],"buffers":[{"byteLength":10108,"uri":"SD_Prop_Pedestal_01.bin"}],"images":[{"name":"SimpleDungeonTexture","uri":"../Textures/SimpleDungeonTexture.png"}],"materials":[{"alphaMode":"OPAQUE","doubleSided":false,"extras":{"fromFBX":{"isTruePBR":false,"shadingModel":"Lambert"}},"name":"lambert1","pbrMetallicRoughness":{"baseColorFactor":[0.800000011920929,0.800000011920929,0.800000011920929,1],"baseColorTexture":{"index":0,"texCoord":0},"metallicFactor":0.200000002980232,"roughnessFactor":0.800000011920929}}],"meshes":[{"name":"SD_Prop_Pedestal_01","primitives":[{"attributes":{"NORMAL":3,"POSITION":2,"TEXCOORD_0":4},"indices":1,"material":0,"mode":4}]}],"nodes":[{"mesh":0,"name":"SD_Prop_Pedestal_01","rotation":[0,0,0,1],"scale":[1,1,1],"translation":[0,0,0]}],"samplers":[{}],"scene":0,"scenes":[{"name":"Root Scene","nodes":[0]}],"textures":[{"name":"file1","sampler":0,"source":0}]}