{"accessors":[{"bufferView":0,"byteOffset":0,"componentType":5126,"count":1,"max":[0],"min":[0],"type":"SCALAR"},{"bufferView":1,"byteOffset":0,"componentType":5123,"count":228,"type":"SCALAR"},{"bufferView":2,"byteOffset":0,"componentType":5126,"count":152,"max":[0.00460632331669331,0.0102201458066702,0.00460586557164788],"min":[-0.00460632331669,-0.00033666193485,-0.00460586557165],"type":"VEC3"},{"bufferView":3,"byteOffset":0,"componentType":5126,"count":152,"type":"VEC3"},{"bufferView":4,"byteOffset":0,"componentType":5126,"count":152,"type":"VEC2"}],"animations":[{"channels":[],"name":"Take 001","samplers":[]}],"asset":{"generator":"FBX2glTF v0.13.1","version":"2.0"},"bufferViews":[{"buffer":0,"byteLength":4,"byteOffset":0},{"buffer":0,"byteLength":456,"byteOffset":4,"target":34963},{"buffer":0,"byteLength":1824,"byteOffset":460,"target":34962},{"buffer":0,"byteLength":1824,"byteOffset":2284,"target":34962},{"buffer":0,"byteLength":1216,"byteOffset":4108,"target":34962}],"buffers":[{"byteLength":5324,"uri":"SD_Prop_Pot_Smashed_02.bin"}],"materials":[{"alphaMode":"OPAQUE","doubleSided":false,"extras":{"fromFBX":{"isTruePBR":false,"shadingModel":"Lambert"}},"name":"lambert80","pbrMetallicRoughness":{"baseColorFactor":[0.400000005960464,0.400000005960464,0.400000005960464,1],"metallicFactor":0.200000002980232,"roughnessFactor":0.800000011920929}}],"meshes":[{"name":"SD_Prop_Pot_Smashed_02","primitives":[{"attributes":{"NORMAL":3,"POSITION":2,"TEXCOORD_0":4},"indices":1,"material":0,"mode":4}]}],"nodes":[{"mesh":0,"name":"SD_Prop_Pot_Smashed_02","rotation":[0,0,0,1],"scale":[1,1,1],"translation":[0,0,0]}],"samplers":[{}],"scene":0,"scenes":[{"name":"Root Scene","nodes":[0]}]}