{"accessors":[{"bufferView":0,"byteOffset":0,"componentType":5126,"count":1,"max":[0],"min":[0],"type":"SCALAR"},{"bufferView":1,"byteOffset":0,"componentType":5123,"count":246,"type":"SCALAR"},{"bufferView":2,"byteOffset":0,"componentType":5126,"count":142,"max":[0.0198954772204161,0.00175202335231006,0.0169764701277018],"min":[-0.01989532448351,0.00000000000465661276899398,-0.01697639375925],"type":"VEC3"},{"bufferView":3,"byteOffset":0,"componentType":5126,"count":142,"type":"VEC3"},{"bufferView":4,"byteOffset":0,"componentType":5126,"count":142,"type":"VEC2"}],"animations":[{"channels":[],"name":"Take 001","samplers":[]}],"asset":{"generator":"FBX2glTF v0.13.1","version":"2.0"},"bufferViews":[{"buffer":0,"byteLength":4,"byteOffset":0},{"buffer":0,"byteLength":492,"byteOffset":4,"target":34963},{"buffer":0,"byteLength":1704,"byteOffset":496,"target":34962},{"buffer":0,"byteLength":1704,"byteOffset":2200,"target":34962},{"buffer":0,"byteLength":1136,"byteOffset":3904,"target":34962}],"buffers":[{"byteLength":5040,"uri":"SD_Prop_Rug_Red_Small_02.bin"}],"images":[{"name":"SimpleDungeonTexture","uri":"../Textures/SimpleDungeonTexture.png"}],"materials":[{"alphaMode":"OPAQUE","doubleSided":false,"extras":{"fromFBX":{"isTruePBR":false,"shadingModel":"Lambert"}},"name":"lambert1","pbrMetallicRoughness":{"baseColorFactor":[0.800000011920929,0.800000011920929,0.800000011920929,1],"baseColorTexture":{"index":0,"texCoord":0},"metallicFactor":0.200000002980232,"roughnessFactor":0.800000011920929}}],"meshes":[{"name":"SD_Prop_Rug_Red_Small_02","primitives":[{"attributes":{"NORMAL":3,"POSITION":2,"TEXCOORD_0":4},"indices":1,"material":0,"mode":4}]}],"nodes":[{"mesh":0,"name":"SD_Prop_Rug_Red_Small_02","rotation":[0,0,0,1],"scale":[1,1,1],"translation":[0,0,0]}],"samplers":[{}],"scene":0,"scenes":[{"name":"Root Scene","nodes":[0]}],"textures":[{"name":"file1","sampler":0,"source":0}]}