{"accessors":[{"bufferView":0,"byteOffset":0,"componentType":5126,"count":1,"max":[0],"min":[0],"type":"SCALAR"},{"bufferView":1,"byteOffset":0,"componentType":5123,"count":60,"type":"SCALAR"},{"bufferView":2,"byteOffset":0,"componentType":5126,"count":40,"max":[0.00059968949062749,0.00193404627498239,0.00059968949062749],"min":[-0.00059968949063,-0.00000000000939,-0.00059968949063],"type":"VEC3"},{"bufferView":3,"byteOffset":0,"componentType":5126,"count":40,"type":"VEC3"},{"bufferView":4,"byteOffset":0,"componentType":5126,"count":40,"type":"VEC2"}],"animations":[{"channels":[],"name":"Take 001","samplers":[]}],"asset":{"generator":"FBX2glTF v0.13.1","version":"2.0"},"bufferViews":[{"buffer":0,"byteLength":4,"byteOffset":0},{"buffer":0,"byteLength":120,"byteOffset":4,"target":34963},{"buffer":0,"byteLength":480,"byteOffset":124,"target":34962},{"buffer":0,"byteLength":480,"byteOffset":604,"target":34962},{"buffer":0,"byteLength":320,"byteOffset":1084,"target":34962}],"buffers":[{"byteLength":1404,"uri":"SD_Prop_Candle_Flame_01.bin"}],"materials":[{"alphaMode":"OPAQUE","doubleSided":false,"extras":{"fromFBX":{"isTruePBR":false,"shadingModel":"Lambert"}},"name":"lambert80","pbrMetallicRoughness":{"baseColorFactor":[0.400000005960464,0.400000005960464,0.400000005960464,1],"metallicFactor":0.200000002980232,"roughnessFactor":0.800000011920929}}],"meshes":[{"name":"SD_Prio_Candle_Flame_01","primitives":[{"attributes":{"NORMAL":3,"POSITION":2,"TEXCOORD_0":4},"indices":1,"material":0,"mode":4}]}],"nodes":[{"mesh":0,"name":"SD_Prio_Candle_Flame_01","rotation":[0,0,0,1],"scale":[1,1,1],"translation":[0,0,0]}],"samplers":[{}],"scene":0,"scenes":[{"name":"Root Scene","nodes":[0]}]}