{"accessors":[{"bufferView":0,"byteOffset":0,"componentType":5126,"count":1,"max":[0],"min":[0],"type":"SCALAR"},{"bufferView":1,"byteOffset":0,"componentType":5123,"count":642,"type":"SCALAR"},{"bufferView":2,"byteOffset":0,"componentType":5126,"count":388,"max":[0.0104619981721044,0.00794365163892508,0.00499999988824129],"min":[-0.0104619981721,0,-0.00499999988824],"type":"VEC3"},{"bufferView":3,"byteOffset":0,"componentType":5126,"count":388,"type":"VEC3"},{"bufferView":4,"byteOffset":0,"componentType":5126,"count":388,"type":"VEC2"},{"bufferView":5,"byteOffset":0,"componentType":5123,"count":660,"type":"SCALAR"},{"bufferView":6,"byteOffset":0,"componentType":5126,"count":426,"max":[0.00946320500224829,0.0107878744602203,0.0057154749520123],"min":[-0.00946320500225,0.00394165469333529,-0.00531328190118],"type":"VEC3"},{"bufferView":7,"byteOffset":0,"componentType":5126,"count":426,"type":"VEC3"},{"bufferView":8,"byteOffset":0,"componentType":5126,"count":426,"type":"VEC2"}],"animations":[{"channels":[],"name":"Take 001","samplers":[]}],"asset":{"generator":"FBX2glTF v0.13.1","version":"2.0"},"bufferViews":[{"buffer":0,"byteLength":4,"byteOffset":0},{"buffer":0,"byteLength":1284,"byteOffset":4,"target":34963},{"buffer":0,"byteLength":4656,"byteOffset":1288,"target":34962},{"buffer":0,"byteLength":4656,"byteOffset":5944,"target":34962},{"buffer":0,"byteLength":3104,"byteOffset":10600,"target":34962},{"buffer":0,"byteLength":1320,"byteOffset":13704,"target":34963},{"buffer":0,"byteLength":5112,"byteOffset":15024,"target":34962},{"buffer":0,"byteLength":5112,"byteOffset":20136,"target":34962},{"buffer":0,"byteLength":3408,"byteOffset":25248,"target":34962}],"buffers":[{"byteLength":28656,"uri":"SD_Prop_Chest_Mimic_01.bin"}],"images":[{"name":"SimpleDungeonTexture","uri":"../Textures/SimpleDungeonTexture.png"}],"materials":[{"alphaMode":"OPAQUE","doubleSided":false,"extras":{"fromFBX":{"isTruePBR":false,"shadingModel":"Lambert"}},"name":"lambert1","pbrMetallicRoughness":{"baseColorFactor":[0.800000011920929,0.800000011920929,0.800000011920929,1],"baseColorTexture":{"index":0,"texCoord":0},"metallicFactor":0.200000002980232,"roughnessFactor":0.800000011920929}}],"meshes":[{"name":"SD_Prop_Chest_Mimic_01","primitives":[{"attributes":{"NORMAL":3,"POSITION":2,"TEXCOORD_0":4},"indices":1,"material":0,"mode":4}]},{"name":"Chest_Lid","primitives":[{"attributes":{"NORMAL":7,"POSITION":6,"TEXCOORD_0":8},"indices":5,"material":0,"mode":4}]}],"nodes":[{"children":[1],"mesh":0,"name":"SD_Prop_Chest_Mimic_01","rotation":[0,0,0,1],"scale":[1,1,1],"translation":[0,0,0]},{"mesh":1,"name":"Chest_Lid","rotation":[0,0,0,1],"scale":[1,1,1],"translation":[0,0,0]}],"samplers":[{}],"scene":0,"scenes":[{"name":"Root Scene","nodes":[0]}],"textures":[{"name":"file1","sampler":0,"source":0}]}