{"accessors":[{"bufferView":0,"byteOffset":0,"componentType":5126,"count":1,"max":[0],"min":[0],"type":"SCALAR"},{"bufferView":1,"byteOffset":0,"componentType":5123,"count":120,"type":"SCALAR"},{"bufferView":2,"byteOffset":0,"componentType":5126,"count":57,"max":[0.00555436592549086,0.00014953188656363,0.00228368467651308],"min":[-0.00555436592549,0.00014654522237833,-0.00228368467651],"type":"VEC3"},{"bufferView":3,"byteOffset":0,"componentType":5126,"count":57,"type":"VEC3"},{"bufferView":4,"byteOffset":0,"componentType":5126,"count":57,"type":"VEC2"}],"animations":[{"channels":[],"name":"Take 001","samplers":[]}],"asset":{"generator":"FBX2glTF v0.13.1","version":"2.0"},"bufferViews":[{"buffer":0,"byteLength":4,"byteOffset":0},{"buffer":0,"byteLength":240,"byteOffset":4,"target":34963},{"buffer":0,"byteLength":684,"byteOffset":244,"target":34962},{"buffer":0,"byteLength":684,"byteOffset":928,"target":34962},{"buffer":0,"byteLength":456,"byteOffset":1612,"target":34962}],"buffers":[{"byteLength":2068,"uri":"SD_Prop_BloodSplat_03.bin"}],"images":[{"name":"SimpleDungeonTexture","uri":"../Textures/SimpleDungeonTexture.png"}],"materials":[{"alphaMode":"OPAQUE","doubleSided":false,"extras":{"fromFBX":{"isTruePBR":false,"shadingModel":"Lambert"}},"name":"lambert1","pbrMetallicRoughness":{"baseColorFactor":[0.800000011920929,0.800000011920929,0.800000011920929,1],"baseColorTexture":{"index":0,"texCoord":0},"metallicFactor":0.200000002980232,"roughnessFactor":0.800000011920929}}],"meshes":[{"name":"SD_Prop_BloodSplat_03","primitives":[{"attributes":{"NORMAL":3,"POSITION":2,"TEXCOORD_0":4},"indices":1,"material":0,"mode":4}]}],"nodes":[{"mesh":0,"name":"SD_Prop_BloodSplat_03","rotation":[0,0,0,1],"scale":[1,1,1],"translation":[0,0,0]}],"samplers":[{}],"scene":0,"scenes":[{"name":"Root Scene","nodes":[0]}],"textures":[{"name":"file1","sampler":0,"source":0}]}