{"accessors":[{"bufferView":0,"byteOffset":0,"componentType":5126,"count":1,"max":[0],"min":[0],"type":"SCALAR"},{"bufferView":1,"byteOffset":0,"componentType":5123,"count":153,"type":"SCALAR"},{"bufferView":2,"byteOffset":0,"componentType":5126,"count":77,"max":[0.00448933430016041,0.00015102521865628,0.00368211534805596],"min":[-0.00448933430016,0.0001480385690229,-0.00368211534806],"type":"VEC3"},{"bufferView":3,"byteOffset":0,"componentType":5126,"count":77,"type":"VEC3"},{"bufferView":4,"byteOffset":0,"componentType":5126,"count":77,"type":"VEC2"}],"animations":[{"channels":[],"name":"Take 001","samplers":[]}],"asset":{"generator":"FBX2glTF v0.13.1","version":"2.0"},"bufferViews":[{"buffer":0,"byteLength":4,"byteOffset":0},{"buffer":0,"byteLength":306,"byteOffset":4,"target":34963},{"buffer":0,"byteLength":924,"byteOffset":312,"target":34962},{"buffer":0,"byteLength":924,"byteOffset":1236,"target":34962},{"buffer":0,"byteLength":616,"byteOffset":2160,"target":34962}],"buffers":[{"byteLength":2776,"uri":"SD_Prop_BloodSplat_04.bin"}],"images":[{"name":"SimpleDungeonTexture","uri":"../Textures/SimpleDungeonTexture.png"}],"materials":[{"alphaMode":"OPAQUE","doubleSided":false,"extras":{"fromFBX":{"isTruePBR":false,"shadingModel":"Lambert"}},"name":"lambert1","pbrMetallicRoughness":{"baseColorFactor":[0.800000011920929,0.800000011920929,0.800000011920929,1],"baseColorTexture":{"index":0,"texCoord":0},"metallicFactor":0.200000002980232,"roughnessFactor":0.800000011920929}}],"meshes":[{"name":"SD_Prop_BloodSplat_04","primitives":[{"attributes":{"NORMAL":3,"POSITION":2,"TEXCOORD_0":4},"indices":1,"material":0,"mode":4}]}],"nodes":[{"mesh":0,"name":"SD_Prop_BloodSplat_04","rotation":[0,0,0,1],"scale":[1,1,1],"translation":[0,0,0]}],"samplers":[{}],"scene":0,"scenes":[{"name":"Root Scene","nodes":[0]}],"textures":[{"name":"file1","sampler":0,"source":0}]}