{"accessors":[{"bufferView":0,"byteOffset":0,"componentType":5126,"count":1,"max":[0],"min":[0],"type":"SCALAR"},{"bufferView":1,"byteOffset":0,"componentType":5123,"count":900,"type":"SCALAR"},{"bufferView":2,"byteOffset":0,"componentType":5126,"count":580,"max":[0.0103411376476288,0.035428199917078,0.00060035509523004],"min":[-0.00958715379238,0,-0.00797297712415],"type":"VEC3"},{"bufferView":3,"byteOffset":0,"componentType":5126,"count":580,"type":"VEC3"},{"bufferView":4,"byteOffset":0,"componentType":5126,"count":580,"type":"VEC2"},{"bufferView":5,"byteOffset":0,"componentType":5123,"count":1080,"type":"SCALAR"},{"bufferView":6,"byteOffset":0,"componentType":5126,"count":684,"max":[0.00958713516592979,0.035428199917078,0.00797297619283199],"min":[-0.00958715379238,0,0],"type":"VEC3"},{"bufferView":7,"byteOffset":0,"componentType":5126,"count":684,"type":"VEC3"},{"bufferView":8,"byteOffset":0,"componentType":5126,"count":684,"type":"VEC2"}],"animations":[{"channels":[],"name":"Take 001","samplers":[]}],"asset":{"generator":"FBX2glTF v0.13.1","version":"2.0"},"bufferViews":[{"buffer":0,"byteLength":4,"byteOffset":0},{"buffer":0,"byteLength":1800,"byteOffset":4,"target":34963},{"buffer":0,"byteLength":6960,"byteOffset":1804,"target":34962},{"buffer":0,"byteLength":6960,"byteOffset":8764,"target":34962},{"buffer":0,"byteLength":4640,"byteOffset":15724,"target":34962},{"buffer":0,"byteLength":2160,"byteOffset":20364,"target":34963},{"buffer":0,"byteLength":8208,"byteOffset":22524,"target":34962},{"buffer":0,"byteLength":8208,"byteOffset":30732,"target":34962},{"buffer":0,"byteLength":5472,"byteOffset":38940,"target":34962}],"buffers":[{"byteLength":44412,"uri":"SD_Trap_IronMaiden_01.bin"}],"images":[{"name":"SimpleDungeonTexture","uri":"../Textures/SimpleDungeonTexture.png"}],"materials":[{"alphaMode":"OPAQUE","doubleSided":false,"extras":{"fromFBX":{"isTruePBR":false,"shadingModel":"Lambert"}},"name":"lambert1","pbrMetallicRoughness":{"baseColorFactor":[0.800000011920929,0.800000011920929,0.800000011920929,1],"baseColorTexture":{"index":0,"texCoord":0},"metallicFactor":0.200000002980232,"roughnessFactor":0.800000011920929}}],"meshes":[{"name":"SD_Trap_IronMaiden_01","primitives":[{"attributes":{"NORMAL":3,"POSITION":2,"TEXCOORD_0":4},"indices":1,"material":0,"mode":4}]},{"name":"IronMaiden_Lid","primitives":[{"attributes":{"NORMAL":7,"POSITION":6,"TEXCOORD_0":8},"indices":5,"material":0,"mode":4}]}],"nodes":[{"children":[1],"mesh":0,"name":"SD_Trap_IronMaiden_01","rotation":[0,0,0,1],"scale":[1,1,1],"translation":[0,0,0]},{"mesh":1,"name":"IronMaiden_Lid","rotation":[0,0,0,1],"scale":[1,1,1],"translation":[0,0,0]}],"samplers":[{}],"scene":0,"scenes":[{"name":"Root Scene","nodes":[0]}],"textures":[{"name":"file1","sampler":0,"source":0}]}