{"accessors":[{"bufferView":0,"byteOffset":0,"componentType":5126,"count":1,"max":[0],"min":[0],"type":"SCALAR"},{"bufferView":1,"byteOffset":0,"componentType":5123,"count":84,"type":"SCALAR"},{"bufferView":2,"byteOffset":0,"componentType":5126,"count":56,"max":[0.0467664152383804,0.00204138993285596,0.00296157831326127],"min":[-0.04676669090986,-0.01719594374299,-0.0030595397111],"type":"VEC3"},{"bufferView":3,"byteOffset":0,"componentType":5126,"count":56,"type":"VEC3"},{"bufferView":4,"byteOffset":0,"componentType":5126,"count":56,"type":"VEC2"},{"bufferView":5,"byteOffset":0,"componentType":5123,"count":576,"type":"SCALAR"},{"bufferView":6,"byteOffset":0,"componentType":5126,"count":388,"max":[0.0413252003490925,0.0168539397418499,0.0007954406319186],"min":[0.00761731015518308,-0.01685394532979,-0.00079544063192],"type":"VEC3"},{"bufferView":7,"byteOffset":0,"componentType":5126,"count":388,"type":"VEC3"},{"bufferView":8,"byteOffset":0,"componentType":5126,"count":388,"type":"VEC2"}],"animations":[{"channels":[],"name":"Take 001","samplers":[]}],"asset":{"generator":"FBX2glTF v0.13.1","version":"2.0"},"bufferViews":[{"buffer":0,"byteLength":4,"byteOffset":0},{"buffer":0,"byteLength":168,"byteOffset":4,"target":34963},{"buffer":0,"byteLength":672,"byteOffset":172,"target":34962},{"buffer":0,"byteLength":672,"byteOffset":844,"target":34962},{"buffer":0,"byteLength":448,"byteOffset":1516,"target":34962},{"buffer":0,"byteLength":1152,"byteOffset":1964,"target":34963},{"buffer":0,"byteLength":4656,"byteOffset":3116,"target":34962},{"buffer":0,"byteLength":4656,"byteOffset":7772,"target":34962},{"buffer":0,"byteLength":3104,"byteOffset":12428,"target":34962}],"buffers":[{"byteLength":15532,"uri":"SD_Trap_BuzzSaw_01.bin"}],"images":[{"name":"SimpleDungeonTexture","uri":"../Textures/SimpleDungeonTexture.png"}],"materials":[{"alphaMode":"OPAQUE","doubleSided":false,"extras":{"fromFBX":{"isTruePBR":false,"shadingModel":"Lambert"}},"name":"lambert1","pbrMetallicRoughness":{"baseColorFactor":[0.800000011920929,0.800000011920929,0.800000011920929,1],"baseColorTexture":{"index":0,"texCoord":0},"metallicFactor":0.200000002980232,"roughnessFactor":0.800000011920929}}],"meshes":[{"name":"SD_Trap_BuzzSaw_01","primitives":[{"attributes":{"NORMAL":3,"POSITION":2,"TEXCOORD_0":4},"indices":1,"material":0,"mode":4}]},{"name":"BuzzSaw","primitives":[{"attributes":{"NORMAL":7,"POSITION":6,"TEXCOORD_0":8},"indices":5,"material":0,"mode":4}]}],"nodes":[{"children":[1],"mesh":0,"name":"SD_Trap_BuzzSaw_01","rotation":[0,0,0,1],"scale":[1,1,1],"translation":[0,0,0]},{"mesh":1,"name":"BuzzSaw","rotation":[0,0,0,1],"scale":[1,1,1],"translation":[0,0,0]}],"samplers":[{}],"scene":0,"scenes":[{"name":"Root Scene","nodes":[0]}],"textures":[{"name":"file1","sampler":0,"source":0}]}