{"accessors":[{"bufferView":0,"byteOffset":0,"componentType":5126,"count":1,"max":[0],"min":[0],"type":"SCALAR"},{"bufferView":1,"byteOffset":0,"componentType":5123,"count":192,"type":"SCALAR"},{"bufferView":2,"byteOffset":0,"componentType":5126,"count":93,"max":[0.100000038743019,0,0.0999999940395355],"min":[0,-0.08189684897661,-0.00000005722046],"type":"VEC3"},{"bufferView":3,"byteOffset":0,"componentType":5126,"count":93,"type":"VEC3"},{"bufferView":4,"byteOffset":0,"componentType":5126,"count":93,"type":"VEC2"},{"bufferView":5,"byteOffset":0,"componentType":5123,"count":1200,"type":"SCALAR"},{"bufferView":6,"byteOffset":0,"componentType":5126,"count":766,"max":[0.0878396555781364,0.00654379464685917,0.0947603955864906],"min":[0.0600072480738163,-0.02128860913217,0.00523960590362549],"type":"VEC3"},{"bufferView":7,"byteOffset":0,"componentType":5126,"count":766,"type":"VEC3"},{"bufferView":8,"byteOffset":0,"componentType":5126,"count":766,"type":"VEC2"},{"bufferView":9,"byteOffset":0,"componentType":5123,"count":960,"type":"SCALAR"},{"bufferView":10,"byteOffset":0,"componentType":5126,"count":614,"max":[0.0639162808656693,0.00654379511252046,0.0947603955864906],"min":[0.0360837914049625,-0.02128860913217,0.00523960124701262],"type":"VEC3"},{"bufferView":11,"byteOffset":0,"componentType":5126,"count":614,"type":"VEC3"},{"bufferView":12,"byteOffset":0,"componentType":5126,"count":614,"type":"VEC2"},{"bufferView":13,"byteOffset":0,"componentType":5123,"count":1200,"type":"SCALAR"},{"bufferView":14,"byteOffset":0,"componentType":5126,"count":766,"max":[0.0399928241968155,0.00654379464685917,0.0947603955864906],"min":[0.0121604204177856,-0.02128860913217,0.00523960590362549],"type":"VEC3"},{"bufferView":15,"byteOffset":0,"componentType":5126,"count":766,"type":"VEC3"},{"bufferView":16,"byteOffset":0,"componentType":5126,"count":766,"type":"VEC2"}],"animations":[{"channels":[],"name":"Take 001","samplers":[]}],"asset":{"generator":"FBX2glTF v0.13.1","version":"2.0"},"bufferViews":[{"buffer":0,"byteLength":4,"byteOffset":0},{"buffer":0,"byteLength":384,"byteOffset":4,"target":34963},{"buffer":0,"byteLength":1116,"byteOffset":388,"target":34962},{"buffer":0,"byteLength":1116,"byteOffset":1504,"target":34962},{"buffer":0,"byteLength":744,"byteOffset":2620,"target":34962},{"buffer":0,"byteLength":2400,"byteOffset":3364,"target":34963},{"buffer":0,"byteLength":9192,"byteOffset":5764,"target":34962},{"buffer":0,"byteLength":9192,"byteOffset":14956,"target":34962},{"buffer":0,"byteLength":6128,"byteOffset":24148,"target":34962},{"buffer":0,"byteLength":1920,"byteOffset":30276,"target":34963},{"buffer":0,"byteLength":7368,"byteOffset":32196,"target":34962},{"buffer":0,"byteLength":7368,"byteOffset":39564,"target":34962},{"buffer":0,"byteLength":4912,"byteOffset":46932,"target":34962},{"buffer":0,"byteLength":2400,"byteOffset":51844,"target":34963},{"buffer":0,"byteLength":9192,"byteOffset":54244,"target":34962},{"buffer":0,"byteLength":9192,"byteOffset":63436,"target":34962},{"buffer":0,"byteLength":6128,"byteOffset":72628,"target":34962}],"buffers":[{"byteLength":78756,"uri":"SD_Trap_FloorGrinder_02.bin"}],"images":[{"name":"SimpleDungeonTexture","uri":"../Textures/SimpleDungeonTexture.png"}],"materials":[{"alphaMode":"OPAQUE","doubleSided":false,"extras":{"fromFBX":{"isTruePBR":false,"shadingModel":"Lambert"}},"name":"lambert1","pbrMetallicRoughness":{"baseColorFactor":[0.800000011920929,0.800000011920929,0.800000011920929,1],"baseColorTexture":{"index":0,"texCoord":0},"metallicFactor":0.200000002980232,"roughnessFactor":0.800000011920929}}],"meshes":[{"name":"SD_Trap_FloorGrinder_02","primitives":[{"attributes":{"NORMAL":3,"POSITION":2,"TEXCOORD_0":4},"indices":1,"material":0,"mode":4}]},{"name":"Grinder_02","primitives":[{"attributes":{"NORMAL":7,"POSITION":6,"TEXCOORD_0":8},"indices":5,"material":0,"mode":4}]},{"name":"Grinder_03","primitives":[{"attributes":{"NORMAL":11,"POSITION":10,"TEXCOORD_0":12},"indices":9,"material":0,"mode":4}]},{"name":"Grinder_01","primitives":[{"attributes":{"NORMAL":15,"POSITION":14,"TEXCOORD_0":16},"indices":13,"material":0,"mode":4}]}],"nodes":[{"children":[1,2,3],"mesh":0,"name":"SD_Trap_FloorGrinder_02","rotation":[0,0,0,1],"scale":[1,1,1],"translation":[0,0,0]},{"mesh":1,"name":"Grinder_02","rotation":[0,0,0,1],"scale":[1,1,1],"translation":[0,0,0]},{"mesh":2,"name":"Grinder_03","rotation":[0,0,0,1],"scale":[1,1,1],"translation":[0,0,0]},{"mesh":3,"name":"Grinder_01","rotation":[0,0,0,1],"scale":[1,1,1],"translation":[0,0,0]}],"samplers":[{}],"scene":0,"scenes":[{"name":"Root Scene","nodes":[0]}],"textures":[{"name":"file1","sampler":0,"source":0}]}