{"accessors":[{"bufferView":0,"byteOffset":0,"componentType":5126,"count":1,"max":[0],"min":[0],"type":"SCALAR"},{"bufferView":1,"byteOffset":0,"componentType":5123,"count":84,"type":"SCALAR"},{"bufferView":2,"byteOffset":0,"componentType":5126,"count":56,"max":[0.00559168821200728,0.0171959437429905,0.00261894217692316],"min":[-0.00559165002778,-0.00204138504341,-0.00270561221987],"type":"VEC3"},{"bufferView":3,"byteOffset":0,"componentType":5126,"count":56,"type":"VEC3"},{"bufferView":4,"byteOffset":0,"componentType":5126,"count":56,"type":"VEC2"},{"bufferView":5,"byteOffset":0,"componentType":5123,"count":288,"type":"SCALAR"},{"bufferView":6,"byteOffset":0,"componentType":5126,"count":160,"max":[0.0234696548432112,0.00271897786296904,0.00148224586155266],"min":[-0.02346972189844,-0.0705789104104,-0.00148224586155],"type":"VEC3"},{"bufferView":7,"byteOffset":0,"componentType":5126,"count":160,"type":"VEC3"},{"bufferView":8,"byteOffset":0,"componentType":5126,"count":160,"type":"VEC2"}],"animations":[{"channels":[],"name":"Take 001","samplers":[]}],"asset":{"generator":"FBX2glTF v0.13.1","version":"2.0"},"bufferViews":[{"buffer":0,"byteLength":4,"byteOffset":0},{"buffer":0,"byteLength":168,"byteOffset":4,"target":34963},{"buffer":0,"byteLength":672,"byteOffset":172,"target":34962},{"buffer":0,"byteLength":672,"byteOffset":844,"target":34962},{"buffer":0,"byteLength":448,"byteOffset":1516,"target":34962},{"buffer":0,"byteLength":576,"byteOffset":1964,"target":34963},{"buffer":0,"byteLength":1920,"byteOffset":2540,"target":34962},{"buffer":0,"byteLength":1920,"byteOffset":4460,"target":34962},{"buffer":0,"byteLength":1280,"byteOffset":6380,"target":34962}],"buffers":[{"byteLength":7660,"uri":"SD_Trap_SwingingAxe_01.bin"}],"images":[{"name":"SimpleDungeonTexture","uri":"../Textures/SimpleDungeonTexture.png"}],"materials":[{"alphaMode":"OPAQUE","doubleSided":false,"extras":{"fromFBX":{"isTruePBR":false,"shadingModel":"Lambert"}},"name":"lambert1","pbrMetallicRoughness":{"baseColorFactor":[0.800000011920929,0.800000011920929,0.800000011920929,1],"baseColorTexture":{"index":0,"texCoord":0},"metallicFactor":0.200000002980232,"roughnessFactor":0.800000011920929}}],"meshes":[{"name":"SD_Trap_SwingingAxe_01","primitives":[{"attributes":{"NORMAL":3,"POSITION":2,"TEXCOORD_0":4},"indices":1,"material":0,"mode":4}]},{"name":"SwingingAxe","primitives":[{"attributes":{"NORMAL":7,"POSITION":6,"TEXCOORD_0":8},"indices":5,"material":0,"mode":4}]}],"nodes":[{"children":[1],"mesh":0,"name":"SD_Trap_SwingingAxe_01","rotation":[0,0,0,1],"scale":[1,1,1],"translation":[0,0,0]},{"mesh":1,"name":"SwingingAxe","rotation":[0,0,0,1],"scale":[1,1,1],"translation":[0,0,0]}],"samplers":[{}],"scene":0,"scenes":[{"name":"Root Scene","nodes":[0]}],"textures":[{"name":"file1","sampler":0,"source":0}]}