{"accessors":[{"bufferView":0,"byteOffset":0,"componentType":5126,"count":1,"max":[0],"min":[0],"type":"SCALAR"},{"bufferView":1,"byteOffset":0,"componentType":5123,"count":192,"type":"SCALAR"},{"bufferView":2,"byteOffset":0,"componentType":5126,"count":83,"max":[0.100000075995922,0,0.0999999940395355],"min":[0,-0.08189684897661,-0.00000003814697],"type":"VEC3"},{"bufferView":3,"byteOffset":0,"componentType":5126,"count":83,"type":"VEC3"},{"bufferView":4,"byteOffset":0,"componentType":5126,"count":83,"type":"VEC2"},{"bufferView":5,"byteOffset":0,"componentType":5123,"count":1200,"type":"SCALAR"},{"bufferView":6,"byteOffset":0,"componentType":5126,"count":780,"max":[0.0714663192629814,0.0131620904430747,0.0947603955864906],"min":[0.0303973313421011,-0.02790690399706,0.00523960590362549],"type":"VEC3"},{"bufferView":7,"byteOffset":0,"componentType":5126,"count":780,"type":"VEC3"},{"bufferView":8,"byteOffset":0,"componentType":5126,"count":780,"type":"VEC2"}],"animations":[{"channels":[],"name":"Take 001","samplers":[]}],"asset":{"generator":"FBX2glTF v0.13.1","version":"2.0"},"bufferViews":[{"buffer":0,"byteLength":4,"byteOffset":0},{"buffer":0,"byteLength":384,"byteOffset":4,"target":34963},{"buffer":0,"byteLength":996,"byteOffset":388,"target":34962},{"buffer":0,"byteLength":996,"byteOffset":1384,"target":34962},{"buffer":0,"byteLength":664,"byteOffset":2380,"target":34962},{"buffer":0,"byteLength":2400,"byteOffset":3044,"target":34963},{"buffer":0,"byteLength":9360,"byteOffset":5444,"target":34962},{"buffer":0,"byteLength":9360,"byteOffset":14804,"target":34962},{"buffer":0,"byteLength":6240,"byteOffset":24164,"target":34962}],"buffers":[{"byteLength":30404,"uri":"SD_Trap_FloorGrinder_01.bin"}],"images":[{"name":"SimpleDungeonTexture","uri":"../Textures/SimpleDungeonTexture.png"}],"materials":[{"alphaMode":"OPAQUE","doubleSided":false,"extras":{"fromFBX":{"isTruePBR":false,"shadingModel":"Lambert"}},"name":"lambert1","pbrMetallicRoughness":{"baseColorFactor":[0.800000011920929,0.800000011920929,0.800000011920929,1],"baseColorTexture":{"index":0,"texCoord":0},"metallicFactor":0.200000002980232,"roughnessFactor":0.800000011920929}}],"meshes":[{"name":"SD_Trap_FloorGrinder_01","primitives":[{"attributes":{"NORMAL":3,"POSITION":2,"TEXCOORD_0":4},"indices":1,"material":0,"mode":4}]},{"name":"Grinder_01","primitives":[{"attributes":{"NORMAL":7,"POSITION":6,"TEXCOORD_0":8},"indices":5,"material":0,"mode":4}]}],"nodes":[{"children":[1],"mesh":0,"name":"SD_Trap_FloorGrinder_01","rotation":[0,0,0,1],"scale":[1,1,1],"translation":[0,0,0]},{"mesh":1,"name":"Grinder_01","rotation":[0,0,0,1],"scale":[1,1,1],"translation":[0,0,0]}],"samplers":[{}],"scene":0,"scenes":[{"name":"Root Scene","nodes":[0]}],"textures":[{"name":"file1","sampler":0,"source":0}]}